# 3ds Max Wavefront OBJ Exporter v0.97b - (c)2007 guruware
# File Created: 11.03.2016 16:40:55

#
# object jm1_p
#

v  15.1411 130.0000 -48.3083
v  19.1428 98.6428 -46.8945
v  0.5000 80.0000 -50.5000
v  -10.0340 130.0000 -49.3778
v  30.2317 130.0000 -40.6999
v  33.5337 113.0337 -38.0336
v  41.9255 130.0000 -28.4987
v  44.1507 123.6507 -24.8848
v  49.7808 129.2808 -8.9500
v  49.7808 129.2808 7.9500
v  46.0614 130.0000 20.0951
v  46.0614 125.5614 20.0951
v  36.5978 130.0000 34.0969
v  36.5978 116.0978 34.0969
v  23.0102 130.0000 44.1463
v  23.0102 102.5102 44.1463
v  6.8509 130.0000 49.0950
v  6.8509 86.3509 49.0950
v  -10.0340 0.0000 48.3778
v  6.8509 73.6491 49.0950
v  -10.0340 130.0000 48.3778
v  15.1411 0.0000 47.3083
v  19.1428 61.3572 45.8945
v  7.0108 0.0000 48.3495
v  30.2317 0.0000 39.6999
v  33.5337 46.9663 37.0336
v  44.1507 36.3493 23.8847
v  41.9255 0.0000 27.4987
v  49.7808 30.7192 7.9500
v  48.8867 0.0000 12.0989
v  49.7808 30.7192 -8.9500
v  48.8867 0.0000 -13.0989
v  44.1507 36.3493 -24.8848
v  41.9255 0.0000 -28.4987
v  33.5337 46.9663 -38.0336
v  30.2317 0.0000 -40.6999
v  19.1428 61.3572 -46.8945
v  15.1411 0.0000 -48.3083
v  -25.7154 130.0000 42.0765
v  -25.7154 0.0000 42.0765
v  -38.4018 130.0000 30.9110
v  -38.4018 0.0000 30.9110
v  -46.6439 130.0000 16.1570
v  -46.6439 0.0000 16.1570
v  -49.5000 130.0000 -0.5000
v  -49.5000 0.0000 -0.5000
v  -46.6439 130.0000 -17.1570
v  -46.6439 0.0000 -17.1570
v  -38.4018 130.0000 -31.9110
v  -38.4018 0.0000 -31.9110
v  -25.7154 130.0000 -43.0765
v  -25.7154 0.0000 -43.0765
v  -10.0340 0.0000 -49.3778
v  80.5000 73.6491 49.0950
v  80.5000 82.1221 49.4549
v  80.5000 98.6428 45.8945
v  80.5000 113.0337 37.0336
v  80.5000 123.6507 23.8847
v  80.5000 129.2808 7.9500
v  80.5000 129.2808 -8.9500
v  80.5000 123.6507 -24.8848
v  80.5000 113.0337 -38.0336
v  80.5000 98.6428 -46.8945
v  80.5000 65.3589 -48.3083
v  80.5000 82.1221 -50.4549
v  80.5000 50.2683 -40.6999
v  80.5000 38.5745 -28.4987
v  80.5000 31.6134 -13.0989
v  80.5000 31.6134 12.0989
v  80.5000 38.5745 27.4987
v  80.5000 50.2683 39.6999
v  80.5000 65.3589 47.3083
# 72 vertices

vn 0.1902 0.6693 -0.7183
vn 0.1534 0.1380 -0.9785
vn -0.0067 0.0013 -1.0000
vn -0.1330 0.6677 -0.7325
vn 0.4352 0.6762 -0.5945
vn 0.3493 0.3313 -0.8765
vn 0.6129 0.6739 -0.4125
vn 0.5476 0.5535 -0.6275
vn 0.1059 0.9863 -0.1266
vn 0.1434 0.9838 0.1078
vn 0.6669 0.6758 0.3139
vn 0.5700 0.5741 0.5878
vn 0.5353 0.6710 0.5131
vn 0.3819 0.3914 0.8372
vn 0.3338 0.6710 0.6621
vn 0.1939 0.2019 0.9600
vn 0.0942 0.6710 0.7355
vn 0.0157 0.0375 0.9992
vn -0.1922 -0.0044 0.9814
vn 0.0108 -0.0322 0.9994
vn -0.1562 0.6710 0.7248
vn 0.2931 -0.0085 0.9560
vn 0.1704 -0.1658 0.9713
vn 0.0646 -0.0100 0.9979
vn 0.6021 0.0029 0.7984
vn 0.3394 -0.3427 0.8760
vn 0.5208 -0.5442 0.6577
vn 0.8280 0.0188 0.5603
vn 0.6790 -0.6924 0.2438
vn 0.9735 0.0025 0.2286
vn 0.6924 -0.6790 -0.2438
vn 0.9764 -0.0169 -0.2154
vn 0.5393 -0.5329 -0.6520
vn 0.8278 -0.0101 -0.5610
vn 0.3384 -0.3384 -0.8780
vn 0.5939 -0.0084 -0.8045
vn 0.1453 -0.1453 -0.9787
vn 0.2552 -0.0124 -0.9668
vn -0.3888 0.6710 0.6314
vn -0.5243 0.0000 0.8515
vn -0.5769 0.6710 0.4658
vn -0.7780 0.0000 0.6282
vn -0.6991 0.6710 0.2470
vn -0.9429 0.0000 0.3331
vn -0.7415 0.6710 0.0000
vn -1.0000 0.0000 0.0000
vn -0.6991 0.6710 -0.2470
vn -0.9429 0.0000 -0.3331
vn -0.5769 0.6710 -0.4658
vn -0.7780 0.0000 -0.6282
vn -0.3888 0.6710 -0.6314
vn -0.5243 0.0000 -0.8515
vn -0.1751 -0.0092 -0.9845
vn 0.0000 -1.0000 -0.0000
vn -0.0071 -0.1275 0.9918
vn -0.0003 0.0802 0.9968
vn 0.0071 0.3722 0.9281
vn 0.0088 0.6599 0.7513
vn 0.0057 0.8746 0.4849
vn 0.0000 0.9856 0.1690
vn -0.0000 0.9856 -0.1690
vn -0.0000 0.8730 -0.4877
vn -0.0000 0.6607 -0.7507
vn -0.0022 0.3714 -0.9285
vn 0.0052 -0.2913 -0.9566
vn -0.0006 0.0453 -0.9990
vn 0.0084 -0.5939 -0.8045
vn -0.0022 -0.8345 -0.5511
vn -0.0025 -0.9735 -0.2286
vn 0.0169 -0.9764 0.2154
vn 0.0101 -0.8278 0.5610
vn 0.0084 -0.5939 0.8045
vn -0.0004 -0.3279 0.9447
vn 1.0000 0.0000 -0.0000
# 74 vertex normals

vt 0.4730 0.0347 0.0000
vt 0.4720 0.1148 0.0000
vt 0.5141 0.1624 0.0000
vt 0.5268 0.0347 0.0000
vt 0.4408 0.0347 0.0000
vt 0.4394 0.0780 0.0000
vt 0.4158 0.0347 0.0000
vt 0.4155 0.0509 0.0000
vt 0.4027 0.0366 0.0000
vt 0.2621 0.0408 0.0000
vt 0.2583 0.0351 0.0000
vt 0.2549 0.0466 0.0000
vt 0.2381 0.0351 0.0000
vt 0.2337 0.0710 0.0000
vt 0.2091 0.0351 0.0000
vt 0.2034 0.1060 0.0000
vt 0.1746 0.0351 0.0000
vt 0.1672 0.1477 0.0000
vt 0.1385 0.3705 0.0000
vt 0.1672 0.1805 0.0000
vt 0.1565 0.0351 0.0000
vt 0.1923 0.3705 0.0000
vt 0.1947 0.2122 0.0000
vt 0.1749 0.3705 0.0000
vt 0.2245 0.3705 0.0000
vt 0.2269 0.2493 0.0000
vt 0.2506 0.2767 0.0000
vt 0.2495 0.3705 0.0000
vt 0.2602 0.2861 0.0000
vt 0.2644 0.3705 0.0000
vt 0.2666 0.2930 0.0000
vt 0.4156 0.2749 0.0000
vt 0.4029 0.2916 0.0000
vt 0.4009 0.3701 0.0000
vt 0.4158 0.3701 0.0000
vt 0.4395 0.2468 0.0000
vt 0.4408 0.3701 0.0000
vt 0.4720 0.2100 0.0000
vt 0.4730 0.3701 0.0000
vt 0.1050 0.0351 0.0000
vt 0.0913 0.3705 0.0000
vt 0.0789 0.0351 0.0000
vt 0.0789 0.3705 0.0000
vt 0.0615 0.0351 0.0000
vt 0.0615 0.3705 0.0000
vt 0.0554 0.0351 0.0000
vt 0.0554 0.3705 0.0000
vt 0.6111 0.3701 0.0000
vt 0.6111 0.0347 0.0000
vt 0.6050 0.0347 0.0000
vt 0.6050 0.3701 0.0000
vt 0.5874 0.0347 0.0000
vt 0.5874 0.3701 0.0000
vt 0.5603 0.0347 0.0000
vt 0.5603 0.3701 0.0000
vt 0.5089 0.3701 0.0000
vt 0.1939 0.4223 0.0000
vt 0.2456 0.4395 0.0000
vt 0.1197 0.4367 0.0000
vt 0.1504 0.4250 0.0000
vt 0.3315 0.8803 0.0000
vt 0.3241 0.8370 0.0000
vt 0.3315 0.7938 0.0000
vt 0.3529 0.9186 0.0000
vt 0.3319 0.1805 0.0000
vt 0.3319 0.1586 0.0000
vt 0.3319 0.1160 0.0000
vt 0.3319 0.0789 0.0000
vt 0.3314 0.0581 0.0000
vt 0.3319 0.0458 0.0000
vt 0.2688 0.0347 0.0000
vt 0.3319 0.0370 0.0000
vt 0.3333 0.0366 0.0000
vt 0.3333 0.0510 0.0000
vt 0.3334 0.0781 0.0000
vt 0.3334 0.1149 0.0000
vt 0.3334 0.1999 0.0000
vt 0.3334 0.1571 0.0000
vt 0.3334 0.2384 0.0000
vt 0.3335 0.2683 0.0000
vt 0.3335 0.2916 0.0000
vt 0.3306 0.2945 0.0000
vt 0.3315 0.2826 0.0000
vt 0.3319 0.2710 0.0000
vt 0.3319 0.2408 0.0000
vt 0.3319 0.2019 0.0000
vt 0.4004 0.6626 0.0000
vt 0.3654 0.6344 0.0000
vt 0.4317 0.4180 0.0000
vt 0.4987 0.4180 0.0000
vt 0.3324 0.5522 0.0000
vt 0.3334 0.5297 0.0000
vt 0.3381 0.5077 0.0000
vt 0.3583 0.4676 0.0000
vt 0.3908 0.4365 0.0000
vt 0.3419 0.5961 0.0000
vt 0.5720 0.4676 0.0000
vt 0.4876 0.6776 0.0000
vt 0.4427 0.6776 0.0000
vt 0.5396 0.4365 0.0000
vt 0.5979 0.5522 0.0000
vt 0.5649 0.6344 0.0000
vt 0.5300 0.6626 0.0000
vt 0.5922 0.5077 0.0000
vt 0.5885 0.5961 0.0000
vt 0.3009 0.5052 0.0000
vt 0.0616 0.5000 0.0000
vt 0.0852 0.4634 0.0000
vt 0.2789 0.4676 0.0000
vt 0.2674 0.6458 0.0000
vt 0.0748 0.6252 0.0000
vt 0.0560 0.5858 0.0000
vt 0.2941 0.6113 0.0000
vt 0.3078 0.5699 0.0000
vt 0.0514 0.5425 0.0000
vt 0.1884 0.6795 0.0000
vt 0.1450 0.6748 0.0000
vt 0.1057 0.6560 0.0000
vt 0.2308 0.6694 0.0000
vt 0.3858 0.7266 0.0000
vt 0.4265 0.9639 0.0000
vt 0.3858 0.9475 0.0000
vt 0.3529 0.7555 0.0000
vt 0.4919 0.7130 0.0000
vt 0.4919 0.9611 0.0000
vt 0.4708 0.9638 0.0000
vt 0.4265 0.7102 0.0000
vt 0.5614 0.7644 0.0000
vt 0.5614 0.9097 0.0000
vt 0.5310 0.9414 0.0000
vt 0.5310 0.7327 0.0000
vt 0.5794 0.8043 0.0000
vt 0.5794 0.8697 0.0000
# 133 texture coords

g jm1_p
s 1
f 1/1/1 2/2/2 3/3/3 4/4/4 
f 5/5/5 6/6/6 2/2/2 1/1/1 
f 7/7/7 8/8/8 6/6/6 5/5/5 
f 9/9/9 8/8/8 7/7/7 
f 10/10/10 11/11/11 12/12/12 
f 11/11/11 13/13/13 14/14/14 12/12/12 
f 13/13/13 15/15/15 16/16/16 14/14/14 
f 15/15/15 17/17/17 18/18/18 16/16/16 
f 19/19/19 20/20/20 18/18/18 21/21/21 
f 22/22/22 23/23/23 20/20/20 24/24/24 
f 23/23/23 22/22/22 25/25/25 26/26/26 
f 27/27/27 26/26/26 25/25/25 28/28/28 
f 29/29/29 27/27/27 28/28/28 30/30/30 
f 31/31/31 29/29/29 30/30/30 32/30/32 
f 33/32/33 31/33/31 32/34/32 34/35/34 
f 35/36/35 33/32/33 34/35/34 36/37/36 
f 37/38/37 35/36/35 36/37/36 38/39/38 
f 19/19/19 21/21/21 39/40/39 40/41/40 
f 41/42/41 42/43/42 40/41/40 39/40/39 
f 42/43/42 41/42/41 43/44/43 44/45/44 
f 44/45/44 43/44/43 45/46/45 46/47/46 
f 46/48/46 45/49/45 47/50/47 48/51/48 
f 48/51/48 47/50/47 49/52/49 50/53/50 
f 50/53/50 49/52/49 51/54/51 52/55/52 
f 52/55/52 51/54/51 4/4/4 53/56/53 
f 4/4/4 3/3/3 53/56/53 
f 3/3/3 37/38/37 38/39/38 53/56/53 
s 3
f 9/57/9 7/58/7 11/59/11 10/60/10 
s 2
f 44/61/54 46/62/54 48/63/54 42/64/54 
s 1
f 18/18/18 20/20/20 54/65/55 55/66/56 
f 56/67/57 16/16/16 18/18/18 55/66/56 
f 16/16/16 56/67/57 57/68/58 14/14/14 
f 14/14/14 57/68/58 58/69/59 12/12/12 
f 10/10/10 12/12/12 58/69/59 59/70/60 
f 9/71/9 10/10/10 59/70/60 60/72/61 
f 8/8/8 9/9/9 60/73/61 61/74/62 
f 8/8/8 61/74/62 62/75/63 6/6/6 
f 2/2/2 6/6/6 62/75/63 63/76/64 
f 64/77/65 37/38/37 3/3/3 65/78/66 
f 3/3/3 2/2/2 63/76/64 65/78/66 
f 37/38/37 64/77/65 66/79/67 35/36/35 
f 35/36/35 66/79/67 67/80/68 33/32/33 
f 31/33/31 33/32/33 67/80/68 68/81/69 
f 68/82/69 69/83/70 29/29/29 31/31/31 
f 69/83/70 70/84/71 27/27/27 29/29/29 
f 70/84/71 71/85/72 26/26/26 27/27/27 
f 71/85/72 72/86/73 23/23/23 26/26/26 
f 54/65/55 20/20/20 23/23/23 72/86/73 
s 2
f 58/87/74 57/88/74 69/89/74 68/90/74 
f 55/91/74 54/92/74 72/93/74 71/94/74 
f 55/91/74 71/94/74 70/95/74 56/96/74 
f 56/96/74 70/95/74 69/89/74 57/88/74 
f 66/97/74 60/98/74 59/99/74 67/100/74 
f 67/100/74 59/99/74 58/87/74 68/90/74 
f 65/101/74 62/102/74 61/103/74 64/104/74 
f 60/98/74 66/97/74 64/104/74 61/103/74 
f 65/101/74 63/105/74 62/102/74 
s 3
f 1/106/1 15/107/15 13/108/13 5/109/5 
f 11/59/11 7/58/7 5/109/5 13/108/13 
f 49/110/49 39/111/39 21/112/21 51/113/51 
f 15/107/15 1/106/1 4/114/4 17/115/17 
s 1
f 20/20/20 19/19/19 24/24/24 
s 3
f 17/115/17 4/114/4 51/113/51 21/112/21 
f 45/116/45 43/117/43 41/118/41 47/119/47 
f 39/111/39 49/110/49 47/119/47 41/118/41 
s 2
f 52/120/54 19/121/54 40/122/54 50/123/54 
f 42/64/54 48/63/54 50/123/54 40/122/54 
f 38/124/54 22/125/54 24/126/54 53/127/54 
f 24/126/54 19/121/54 52/120/54 53/127/54 
f 34/128/54 28/129/54 25/130/54 36/131/54 
f 22/125/54 38/124/54 36/131/54 25/130/54 
f 32/132/54 30/133/54 28/129/54 34/128/54 
s 1
f 18/18/18 17/17/17 21/21/21 
# 67 polygons - 6 triangles

