# 3ds Max Wavefront OBJ Exporter v0.97b - (c)2007 guruware
# File Created: 11.03.2016 15:24:13

#
# object jm2_l
#

v  15.0000 51.6987 47.6970
v  8.6824 0.0000 49.2404
v  25.0000 0.0000 43.3013
v  28.2056 46.4110 41.2850
v  32.1394 170.0000 38.3023
v  17.1010 170.0000 46.9847
v  17.1010 139.4481 46.9847
v  32.1394 144.3783 38.3023
v  43.3013 144.8909 25.0000
v  43.3013 170.0000 25.0000
v  4.6630 130.3737 49.7821
v  -0.0000 170.0000 50.0000
v  -8.6824 170.0000 49.2404
v  -6.9846 112.1010 49.5098
v  -10.0000 95.0000 48.9898
v  -25.0000 170.0000 43.3013
v  -25.0000 0.0000 43.3013
v  -6.9846 77.8990 49.5098
v  -8.6824 0.0000 49.2404
v  1.6978 62.8606 49.9712
v  38.3022 0.0000 32.1394
v  40.0000 45.0000 30.0000
v  46.9846 45.4903 17.1011
v  46.9846 0.0000 17.1011
v  50.0000 46.0102 0.0001
v  50.0000 0.0000 0.0001
v  46.9846 45.4903 -17.1010
v  46.9846 0.0000 -17.1010
v  38.3022 0.0000 -32.1393
v  38.3022 45.0288 -32.1393
v  25.0000 0.0000 -43.3012
v  25.0000 47.3030 -43.3012
v  8.6824 56.0230 -49.2403
v  8.6824 0.0000 -49.2403
v  -6.9846 77.8990 -49.5097
v  -8.6824 0.0000 -49.2403
v  -9.8110 99.3429 -49.0279
v  -25.0000 0.0000 -43.3012
v  -17.1010 170.0000 -46.9846
v  -5.3224 116.1158 -49.7159
v  -0.0000 170.0000 -49.9999
v  1.6978 127.1394 -49.9711
v  17.0768 139.3499 -46.9197
v  17.1010 170.0000 -46.9846
v  32.1086 144.3470 -38.2678
v  32.1394 170.0000 -38.3022
v  43.3013 144.8909 -24.9999
v  43.3013 170.0000 -24.9999
v  49.2404 170.0000 -8.6824
v  49.1213 144.1578 -8.6633
v  49.2404 170.0000 8.6824
v  49.2404 144.1387 8.6825
v  -38.3022 170.0000 32.1394
v  -38.3022 0.0000 32.1394
v  -46.9846 170.0000 17.1011
v  -46.9846 0.0000 17.1011
v  -50.0000 170.0000 0.0001
v  -50.0000 0.0000 0.0001
v  -46.9846 170.0000 -17.1010
v  -46.9846 0.0000 -17.1010
v  -38.3022 170.0000 -32.1393
v  -38.3022 0.0000 -32.1393
v  -25.0000 170.0000 -43.3012
v  -0.0000 170.0000 0.0000
v  -0.0000 0.0000 0.0000
v  40.0000 145.0000 85.0001
v  57.1010 141.9846 85.0001
v  48.6824 144.2404 -94.9999
v  57.1010 141.9846 -94.9999
v  31.3176 144.2404 -95.0000
v  15.0000 138.3013 -95.0000
v  1.6978 127.1394 -95.0000
v  -6.9846 112.1010 -95.0000
v  -10.0000 95.0000 -95.0000
v  -6.9846 77.8990 -95.0000
v  1.6978 62.8606 -95.0000
v  15.0000 51.6987 -95.0000
v  31.3176 45.7596 -95.0000
v  48.6824 45.7596 -95.0000
v  57.1010 48.0154 85.0001
v  48.6824 45.7596 85.0001
v  31.3176 45.7596 85.0001
v  15.0000 51.6987 85.0001
v  1.6978 62.8606 85.0001
v  -6.9846 77.8990 85.0001
v  -10.0000 95.0000 85.0001
v  -6.9846 112.1010 85.0001
v  7.8606 133.3022 85.0001
v  22.8990 141.9846 85.0001
v  72.1394 133.3022 85.0001
v  72.1394 133.3022 -95.0000
v  83.3013 120.0000 85.0001
v  83.3013 120.0000 -95.0000
v  89.2404 103.6824 85.0001
v  89.2404 103.6824 -95.0000
v  89.2404 86.3176 85.0001
v  89.2404 86.3176 -95.0000
v  83.3013 70.0000 85.0001
v  83.3013 70.0000 -95.0000
v  72.1394 56.6978 85.0001
v  72.1394 56.6978 -95.0000
v  65.0000 51.6987 -95.0000
v  40.0000 95.0000 85.0001
v  40.0000 95.0000 -95.0000
# 104 vertices

vn 0.2703 0.0062 0.9628
vn 0.1730 -0.0113 0.9849
vn 0.5006 -0.0106 0.8656
vn 0.5564 0.0064 0.8309
vn 0.6428 0.0000 0.7660
vn 0.3464 0.0061 0.9381
vn 0.3271 0.0000 0.9450
vn 0.6305 0.0000 0.7762
vn 0.8664 0.0000 0.4993
vn 0.8660 0.0000 0.5000
vn 0.0525 -0.0030 0.9986
vn 0.0395 0.0074 0.9992
vn -0.2162 0.0025 0.9763
vn -0.1451 -0.0011 0.9894
vn -0.3365 -0.0015 0.9417
vn -0.5008 0.0013 0.8656
vn -0.4989 0.0014 0.8667
vn -0.2347 -0.0131 0.9720
vn -0.1786 -0.0032 0.9839
vn -0.0014 -0.0007 1.0000
vn 0.7681 -0.0047 0.6403
vn 0.7972 -0.0014 0.6037
vn 0.9443 -0.0040 0.3289
vn 0.9397 0.0000 0.3420
vn 1.0000 0.0000 -0.0000
vn 1.0000 0.0000 0.0000
vn 0.9408 0.0000 -0.3390
vn 0.9397 0.0000 -0.3420
vn 0.7660 0.0000 -0.6428
vn 0.7625 0.0000 -0.6470
vn 0.5000 0.0000 -0.8660
vn 0.4736 0.0000 -0.8807
vn 0.1176 0.0000 -0.9931
vn 0.1747 -0.0015 -0.9846
vn -0.1352 -0.0000 -0.9908
vn -0.1741 -0.0027 -0.9847
vn -0.3023 -0.0037 -0.9532
vn -0.5005 -0.0011 -0.8657
vn -0.3043 0.0052 -0.9526
vn -0.1638 0.0080 -0.9865
vn 0.0042 0.0059 -1.0000
vn 0.0275 0.0004 -0.9996
vn 0.3046 0.0022 -0.9525
vn 0.3419 -0.0021 -0.9397
vn 0.6292 -0.0020 -0.7773
vn 0.6424 -0.0012 -0.7664
vn 0.8676 -0.0006 -0.4972
vn 0.8667 -0.0015 -0.4989
vn 0.9846 -0.0032 -0.1749
vn 0.9850 -0.0033 -0.1726
vn 0.9848 0.0000 0.1736
vn 0.9856 -0.0015 0.1691
vn -0.7660 0.0000 0.6428
vn -0.9397 0.0000 0.3420
vn -1.0000 0.0000 -0.0000
vn -0.9397 0.0000 -0.3420
vn -0.7660 0.0000 -0.6428
vn -0.5373 0.0000 -0.8434
vn 0.0000 1.0000 -0.0000
vn 0.0000 -1.0000 -0.0000
vn 0.2503 0.9682 0.0010
vn 0.1065 0.9943 0.0041
vn 0.0019 0.9999 0.0117
vn 0.3450 0.9386 0.0047
vn 0.1333 0.9911 -0.0046
vn 0.0895 0.9960 -0.0006
vn 0.2432 0.9700 -0.0006
vn 0.3828 0.9238 -0.0002
vn -0.1748 0.9846 -0.0063
vn -0.1293 0.9916 -0.0001
vn -0.4477 0.8942 0.0019
vn -0.5046 0.8633 0.0030
vn -0.7614 0.6483 -0.0010
vn -0.7383 0.6745 0.0000
vn -0.9148 0.4038 0.0045
vn -0.9397 0.3418 -0.0096
vn -0.9981 0.0609 0.0060
vn -0.9999 -0.0104 0.0051
vn -0.9417 -0.3363 0.0075
vn -0.9344 -0.3559 0.0147
vn -0.7696 -0.6386 -0.0003
vn -0.4992 -0.8664 -0.0114
vn -0.6410 -0.7673 0.0220
vn -0.1600 -0.9871 0.0099
vn -0.2511 -0.9679 -0.0117
vn 0.1641 -0.9864 0.0058
vn -0.0018 -0.9999 -0.0119
vn 0.1511 -0.9885 -0.0001
vn 0.2762 -0.9611 -0.0013
vn 0.3830 -0.9237 0.0005
vn 0.1345 -0.9909 0.0069
vn 0.1541 -0.9881 0.0001
vn 0.0297 -0.9996 0.0017
vn -0.1777 -0.9841 0.0073
vn -0.2108 -0.9775 0.0004
vn -0.4857 -0.8741 0.0056
vn -0.5000 -0.8660 0.0000
vn -0.7625 -0.6470 0.0000
vn -0.7660 -0.6428 0.0000
vn -0.9408 -0.3390 0.0000
vn -0.9397 -0.3420 0.0000
vn -1.0000 -0.0000 0.0000
vn -1.0000 -0.0000 -0.0000
vn -0.9267 0.3756 0.0089
vn -0.9329 0.3601 0.0000
vn -0.6734 0.7391 0.0185
vn -0.7266 0.6870 -0.0012
vn -0.3412 0.9399 0.0138
vn -0.4338 0.9009 -0.0100
vn -0.1312 0.9913 -0.0050
vn 0.6428 0.7660 -0.0000
vn 0.8660 0.5000 -0.0000
vn 0.9848 0.1736 -0.0000
vn 0.9848 -0.1736 -0.0000
vn 0.8660 -0.5000 -0.0000
vn 0.6428 -0.7660 -0.0000
vn 0.6736 -0.7391 0.0040
vn 0.4653 -0.8851 0.0023
vn 0.0000 0.0000 1.0000
vn -0.0000 0.0000 -1.0000
vn 0.0000 0.0000 -1.0000
vn -0.0000 -0.0000 -1.0000
vn 0.0000 -0.0000 -1.0000
# 123 vertex normals

vt 0.4977 0.7062 0.0000
vt 0.6814 0.7015 0.0000
vt 0.6814 0.7172 0.0000
vt 0.5166 0.7230 0.0000
vt 0.0776 0.7322 0.0000
vt 0.0775 0.7093 0.0000
vt 0.1860 0.7090 0.0000
vt 0.1686 0.7319 0.0000
vt 0.1670 0.7669 0.0000
vt 0.0778 0.7672 0.0000
vt 0.2182 0.7015 0.0000
vt 0.0774 0.7014 0.0000
vt 0.0775 0.6796 0.0000
vt 0.0775 0.6776 0.0000
vt 0.2832 0.6777 0.0000
vt 0.2183 0.6786 0.0000
vt 0.3440 0.6761 0.0000
vt 0.0774 0.6620 0.0000
vt 0.6814 0.6601 0.0000
vt 0.4047 0.6773 0.0000
vt 0.6815 0.6757 0.0000
vt 0.4582 0.6783 0.0000
vt 0.4580 0.7003 0.0000
vt 0.6816 0.7465 0.0000
vt 0.5218 0.7527 0.0000
vt 0.5202 0.7866 0.0000
vt 0.6818 0.7861 0.0000
vt 0.5186 0.8316 0.0000
vt 0.6821 0.8311 0.0000
vt 0.5207 0.8766 0.0000
vt 0.6823 0.8761 0.0000
vt 0.6825 0.9157 0.0000
vt 0.5226 0.9162 0.0000
vt 0.6827 0.9450 0.0000
vt 0.5147 0.9456 0.0000
vt 0.4838 0.9613 0.0000
vt 0.6828 0.9607 0.0000
vt 0.4061 0.9622 0.0000
vt 0.3271 0.4190 0.0000
vt 0.4033 0.4175 0.0000
vt 0.6800 0.4173 0.0000
vt 0.6801 0.4329 0.0000
vt 0.0761 0.4251 0.0000
vt 0.2675 0.4173 0.0000
vt 0.0761 0.4172 0.0000
vt 0.2283 0.4168 0.0000
vt 0.1877 0.9561 0.0000
vt 0.2311 0.9640 0.0000
vt 0.0789 0.9645 0.0000
vt 0.0788 0.9566 0.0000
vt 0.1698 0.9334 0.0000
vt 0.0787 0.9337 0.0000
vt 0.1677 0.8985 0.0000
vt 0.0785 0.8987 0.0000
vt 0.0783 0.8558 0.0000
vt 0.1701 0.8555 0.0000
vt 0.0780 0.8101 0.0000
vt 0.1699 0.8098 0.0000
vt 0.0773 0.6327 0.0000
vt 0.6812 0.6309 0.0000
vt 0.0771 0.5932 0.0000
vt 0.6810 0.5914 0.0000
vt 0.0768 0.5484 0.0000
vt 0.6807 0.5465 0.0000
vt 0.0766 0.5035 0.0000
vt 0.6805 0.5017 0.0000
vt 0.0763 0.4640 0.0000
vt 0.6803 0.4622 0.0000
vt 0.0762 0.4347 0.0000
vt 0.0769 0.5711 0.0000
vt 0.0767 0.5256 0.0000
vt 0.0774 0.6489 0.0000
vt 0.0772 0.6140 0.0000
vt 0.0775 0.6717 0.0000
vt 0.0763 0.4479 0.0000
vt 0.0764 0.4828 0.0000
vt 0.3227 0.6797 0.0000
vt 0.2658 0.6817 0.0000
vt 0.0565 0.6820 0.0000
vt 0.0565 0.6740 0.0000
vt 0.6843 0.6799 0.0000
vt 0.4401 0.6817 0.0000
vt 0.3832 0.6797 0.0000
vt 0.6843 0.6740 0.0000
vt 0.4401 0.6992 0.0000
vt 0.6843 0.7009 0.0000
vt 0.4864 0.7006 0.0000
vt 0.5166 0.7139 0.0000
vt 0.6843 0.7167 0.0000
vt 0.6843 0.7463 0.0000
vt 0.5272 0.7463 0.0000
vt 0.5264 0.7755 0.0000
vt 0.6843 0.7861 0.0000
vt 0.5240 0.8200 0.0000
vt 0.6843 0.8315 0.0000
vt 0.6843 0.8768 0.0000
vt 0.5256 0.8768 0.0000
vt 0.6843 0.9167 0.0000
vt 0.6843 0.9463 0.0000
vt 0.5247 0.9348 0.0000
vt 0.6843 0.9620 0.0000
vt 0.5040 0.9580 0.0000
vt 0.4650 0.9640 0.0000
vt 0.4650 0.4169 0.0000
vt 0.6843 0.4188 0.0000
vt 0.4126 0.4181 0.0000
vt 0.3529 0.4195 0.0000
vt 0.0565 0.4248 0.0000
vt 0.0565 0.4188 0.0000
vt 0.2933 0.4181 0.0000
vt 0.2483 0.9641 0.0000
vt 0.0565 0.9620 0.0000
vt 0.2089 0.9603 0.0000
vt 0.2483 0.4168 0.0000
vt 0.1866 0.9463 0.0000
vt 0.0565 0.9463 0.0000
vt 0.1787 0.9167 0.0000
vt 0.0565 0.9167 0.0000
vt 0.1803 0.8768 0.0000
vt 0.0565 0.8768 0.0000
vt 0.1821 0.8315 0.0000
vt 0.0565 0.8315 0.0000
vt 0.0565 0.7861 0.0000
vt 0.1803 0.7861 0.0000
vt 0.0565 0.7299 0.0000
vt 0.1793 0.7377 0.0000
vt 0.0565 0.7069 0.0000
vt 0.1891 0.7136 0.0000
vt 0.2658 0.6992 0.0000
vt 0.2194 0.7005 0.0000
vt 0.0565 0.6989 0.0000
vt 0.0565 0.6509 0.0000
vt 0.6843 0.6509 0.0000
vt 0.0565 0.6157 0.0000
vt 0.6843 0.6157 0.0000
vt 0.0565 0.5724 0.0000
vt 0.6843 0.5724 0.0000
vt 0.0565 0.5264 0.0000
vt 0.6843 0.5264 0.0000
vt 0.0565 0.4831 0.0000
vt 0.6843 0.4831 0.0000
vt 0.0565 0.4478 0.0000
vt 0.6843 0.4478 0.0000
vt 0.6843 0.4346 0.0000
vt 0.0565 0.8085 0.0000
vt 0.0565 0.7652 0.0000
vt 0.0565 0.8978 0.0000
vt 0.0565 0.8545 0.0000
vt 0.0565 0.9330 0.0000
vt 0.0565 0.9561 0.0000
vt 0.6843 0.5494 0.0000
vt 0.6843 0.7069 0.0000
vt 0.6843 0.7299 0.0000
# 153 texture coords

g jm2_l
s 1
f 1/1/1 2/2/2 3/3/3 4/4/4 
f 5/5/5 6/6/6 7/7/7 8/8/8 
f 8/8/8 9/9/9 10/10/10 5/5/5 
f 11/11/11 7/7/7 6/6/6 12/12/12 
f 12/13/12 13/14/13 14/15/14 11/16/11 
f 15/17/15 14/15/14 13/14/13 16/18/16 
f 15/17/15 16/18/16 17/19/17 18/20/18 
f 17/19/17 19/21/19 18/20/18 
f 20/22/20 18/20/18 19/21/19 2/21/2 
f 1/1/1 20/23/20 2/2/2 
f 21/24/21 22/25/22 4/4/4 3/3/3 
f 23/26/23 22/25/22 21/24/21 24/27/24 
f 25/28/25 23/26/23 24/27/24 26/29/26 
f 27/30/27 25/28/25 26/29/26 28/31/28 
f 28/31/28 29/32/29 30/33/30 27/30/27 
f 29/32/29 31/34/31 32/35/32 30/33/30 
f 33/36/33 32/35/32 31/34/31 34/37/34 
f 35/38/35 33/36/33 34/37/34 36/37/36 
f 37/39/37 35/40/35 36/41/36 38/42/38 
f 37/39/37 38/42/38 39/43/39 40/44/40 
f 40/44/40 39/43/39 41/45/41 42/46/42 
f 43/47/43 42/48/42 41/49/41 44/50/44 
f 45/51/45 43/47/43 44/50/44 46/52/46 
f 47/53/47 45/51/45 46/52/46 48/54/48 
f 48/54/48 49/55/49 50/56/50 47/53/47 
f 49/55/49 51/57/51 52/58/52 50/56/50 
f 51/57/51 10/10/10 9/9/9 52/58/52 
f 53/59/53 54/60/53 17/19/17 16/18/16 
f 55/61/54 56/62/54 54/60/53 53/59/53 
f 57/63/55 58/64/55 56/62/54 55/61/54 
f 59/65/56 60/66/56 58/64/55 57/63/55 
f 61/67/57 62/68/57 60/66/56 59/65/56 
f 63/69/58 38/42/38 62/68/57 61/67/57 
f 38/42/38 63/69/58 39/43/39 
s 2
f 64/63/59 51/70/59 49/71/59 
f 5/72/59 10/73/59 64/63/59 
f 64/63/59 10/73/59 51/70/59 
f 64/63/59 6/74/59 5/72/59 
f 16/18/59 13/14/59 64/63/59 
f 12/13/59 6/74/59 64/63/59 13/14/59 
f 64/63/59 53/59/59 16/18/59 
f 57/63/59 55/61/59 64/63/59 
f 64/63/59 55/61/59 53/59/59 
f 59/65/59 57/63/59 64/63/59 
f 63/69/59 61/67/59 64/63/59 
f 64/63/59 61/67/59 59/65/59 
f 41/45/59 39/43/59 64/63/59 
f 64/63/59 39/43/59 63/69/59 
f 44/43/59 41/45/59 64/63/59 
f 64/63/59 46/75/59 44/43/59 
f 49/71/59 48/76/59 64/63/59 
f 64/63/59 48/76/59 46/75/59 
f 65/64/60 28/66/60 26/64/60 
f 31/42/60 29/68/60 65/64/60 
f 65/64/60 29/68/60 28/66/60 
f 34/41/60 65/64/60 36/41/60 
f 65/64/60 34/41/60 31/42/60 
f 38/42/60 36/41/60 65/64/60 
f 62/68/60 38/42/60 65/64/60 
f 65/64/60 60/66/60 62/68/60 
f 56/62/60 58/64/60 65/64/60 
f 65/64/60 58/64/60 60/66/60 
f 54/60/60 65/64/60 17/19/60 
f 65/64/60 54/60/60 56/62/60 
f 19/21/60 17/19/60 65/64/60 
f 65/64/60 2/21/60 19/21/60 
f 21/60/60 3/19/60 65/64/60 
f 65/64/60 3/19/60 2/21/60 
f 26/64/60 24/62/60 65/64/60 
f 65/64/60 24/62/60 21/60/60 
f 52/77/61 9/78/62 66/79/63 67/80/64 
f 68/81/65 47/82/66 50/83/67 69/84/68 
f 52/77/61 67/80/64 69/84/68 50/83/67 
f 47/85/66 68/86/65 70/86/69 45/87/70 
f 43/88/71 45/87/70 70/86/69 71/89/72 
f 72/90/73 42/91/74 43/88/71 71/89/72 
f 40/92/75 42/91/74 72/90/73 73/93/76 
f 37/94/77 40/92/75 73/93/76 74/95/78 
f 37/94/77 74/95/78 75/96/79 35/97/80 
f 35/97/80 75/96/79 76/98/81 
f 76/98/81 77/99/82 33/100/83 35/97/80 
f 77/99/82 78/101/84 32/102/85 33/100/83 
f 32/102/85 78/101/84 79/101/86 30/103/87 
f 30/104/87 79/105/86 27/106/88 
f 25/107/89 80/108/90 81/109/91 23/110/92 
f 22/111/93 81/112/91 82/112/94 4/113/95 
f 81/109/91 22/114/93 23/110/92 
f 1/115/96 4/113/95 82/112/94 83/116/97 
f 20/117/98 1/115/96 83/116/97 84/118/99 
f 18/119/100 20/117/98 84/118/99 85/120/101 
f 15/121/102 18/119/100 85/120/101 86/122/103 
f 15/121/102 86/122/103 87/123/104 14/124/105 
f 87/123/104 88/125/106 11/126/107 14/124/105 
f 88/125/106 89/127/108 7/128/109 11/126/107 
f 9/129/62 8/130/110 66/131/63 
f 8/130/110 7/128/109 89/127/108 66/131/63 
f 90/132/111 91/133/111 69/84/68 67/80/64 
f 92/134/112 93/135/112 91/133/111 90/132/111 
f 94/136/113 95/137/113 93/135/112 92/134/112 
f 96/138/114 97/139/114 95/137/113 94/136/113 
f 98/140/115 99/141/115 97/139/114 96/138/114 
f 100/142/116 101/143/117 99/141/115 98/140/115 
f 80/108/90 102/144/118 101/143/117 100/142/116 
f 80/108/90 25/107/89 79/105/86 102/144/118 
f 79/105/86 25/107/89 27/106/88 
s 1
f 67/127/119 66/131/119 103/122/119 
f 103/122/119 66/131/119 89/127/119 
f 90/125/119 67/127/119 103/122/119 
f 94/145/119 92/146/119 103/122/119 
f 103/122/119 92/146/119 90/125/119 
f 98/147/119 96/148/119 103/122/119 
f 103/122/119 96/148/119 94/145/119 
f 100/149/119 98/147/119 103/122/119 
f 81/112/119 80/150/119 103/122/119 
f 103/122/119 80/150/119 100/149/119 
f 83/116/119 82/112/119 103/122/119 
f 103/122/119 82/112/119 81/112/119 
f 84/118/119 83/116/119 103/122/119 
f 103/122/119 85/120/119 84/118/119 
f 87/123/119 86/122/119 103/122/119 
f 103/122/119 86/122/119 85/120/119 
f 103/122/119 88/125/119 87/123/119 
f 103/122/119 89/127/119 88/125/119 
f 71/89/120 70/86/121 104/95/121 
f 104/151/121 70/81/121 68/81/121 
f 72/90/120 71/89/120 104/95/121 
f 73/93/120 104/95/121 74/95/122 
f 104/95/121 73/93/120 72/90/120 
f 75/96/122 74/95/122 104/95/121 
f 76/98/122 104/95/121 77/99/122 
f 104/95/121 76/98/122 75/96/122 
f 78/101/122 77/99/122 104/95/121 
f 104/95/121 79/101/123 78/101/122 
f 101/143/123 102/144/123 104/151/121 
f 104/151/121 102/144/123 79/105/123 
f 97/139/123 99/141/123 104/151/121 
f 104/151/121 99/141/123 101/143/123 
f 93/135/121 95/137/121 104/151/121 
f 104/151/121 95/137/121 97/139/123 
f 91/133/121 93/135/121 104/151/121 
f 68/81/121 69/84/121 104/151/121 
f 104/95/121 69/152/121 91/153/121 
# 62 polygons - 80 triangles

