# 3ds Max Wavefront OBJ Exporter v0.97b - (c)2007 guruware
# File Created: 11.03.2016 15:25:21

#
# object jm2_m
#

v  38.3022 160.0000 -32.1393
v  46.9846 160.0000 -17.1010
v  45.3084 139.7174 -21.1459
v  31.3176 139.2404 -38.9770
v  28.2326 138.5956 41.2665
v  40.0000 140.0000 30.0000
v  38.3022 160.0000 32.1394
v  25.0000 160.0000 43.3013
v  8.6824 160.0000 49.2404
v  15.0000 133.3013 47.6970
v  1.6977 122.1394 49.9712
v  -8.6824 160.0000 49.2404
v  -17.1011 160.0000 46.9847
v  -17.1011 0.0000 46.9847
v  -10.0000 90.0000 48.9898
v  -6.9847 107.1010 49.5098
v  -0.0000 0.0000 50.0000
v  -6.9847 72.8990 49.5098
v  17.1010 0.0000 46.9847
v  15.0000 46.6987 47.6970
v  1.6977 57.8606 49.9712
v  32.1393 0.0000 38.3023
v  31.3176 40.7596 38.9771
v  43.3012 0.0000 25.0000
v  45.3192 40.2838 21.1226
v  49.2403 0.0000 8.6824
v  49.2403 40.8613 8.6824
v  49.2403 40.8613 -8.6824
v  49.2403 0.0000 -8.6824
v  43.3012 0.0000 -25.0000
v  43.3012 40.1091 -25.0000
v  32.1393 0.0000 -38.3022
v  31.3227 40.7855 -38.9216
v  15.0000 46.6987 -47.6969
v  17.1010 0.0000 -46.9846
v  1.6977 57.8606 -49.9711
v  -0.0000 0.0000 -50.0000
v  -6.9847 72.8990 -49.5097
v  -10.0000 90.0000 -48.9898
v  -17.1011 0.0000 -46.9846
v  -17.1011 160.0000 -46.9846
v  -0.0000 160.0000 -50.0000
v  -6.9847 107.1010 -49.5097
v  1.6977 122.1394 -49.9711
v  15.0000 133.3013 -47.6969
v  17.1010 160.0000 -46.9846
v  32.1393 160.0000 -38.3022
v  50.0000 160.0000 0.0000
v  49.8081 139.0286 -4.3760
v  46.9846 160.0000 17.1010
v  48.6824 139.2404 11.4028
v  -32.1394 160.0000 38.3023
v  -32.1394 0.0000 38.3023
v  -43.3013 160.0000 25.0000
v  -43.3013 0.0000 25.0000
v  -49.2404 160.0000 8.6824
v  -49.2404 0.0000 8.6824
v  -49.2404 160.0000 -8.6824
v  -49.2404 0.0000 -8.6824
v  -43.3013 160.0000 -25.0000
v  -43.3013 0.0000 -25.0000
v  -32.1394 160.0000 -38.3022
v  -32.1394 0.0000 -38.3022
v  -0.0000 160.0000 0.0000
v  -0.0000 0.0000 0.0000
v  48.6824 40.7596 80.0000
v  31.3176 40.7596 80.0000
v  48.6824 139.2404 -90.0000
v  48.6824 139.2404 80.0000
v  65.0000 133.3013 80.0000
v  65.0000 133.3013 -90.0000
v  31.3176 139.2404 -90.0000
v  15.0000 133.3013 -90.0000
v  1.6977 122.1394 -90.0000
v  -6.9847 107.1010 -90.0000
v  -10.0000 90.0000 -90.0000
v  -6.9847 72.8990 -90.0000
v  1.6977 57.8606 -90.0000
v  15.0000 46.6987 -90.0000
v  31.3176 40.7596 -90.0000
v  48.6824 40.7596 -90.0000
v  65.0000 46.6987 80.0000
v  15.0000 46.6987 80.0000
v  1.6977 57.8606 80.0000
v  -6.9847 72.8990 80.0000
v  -10.0000 90.0000 80.0000
v  -6.9847 107.1010 80.0000
v  1.6977 122.1394 80.0000
v  15.0000 133.3013 80.0000
v  31.3176 139.2404 80.0000
v  78.3022 122.1394 80.0000
v  78.3022 122.1394 -90.0000
v  86.9846 107.1010 80.0000
v  86.9846 107.1010 -90.0000
v  90.0000 90.0000 80.0000
v  90.0000 90.0000 -90.0000
v  86.9846 72.8990 80.0000
v  86.9846 72.8990 -90.0000
v  78.3022 57.8606 80.0000
v  78.3022 57.8606 -90.0000
v  65.0000 46.6987 -90.0000
v  40.0000 90.0000 80.0000
v  40.0000 90.0000 -89.9999
# 103 vertices

vn 0.7881 -0.0127 -0.6155
vn 0.9473 -0.0145 -0.3199
vn 0.9059 -0.0109 -0.4233
vn 0.6184 -0.0242 -0.7855
vn 0.5595 -0.0092 0.8288
vn 0.8082 -0.0168 0.5887
vn 0.7659 0.0130 0.6428
vn 0.5001 0.0177 0.8658
vn 0.1715 0.0181 0.9850
vn 0.2742 -0.0080 0.9616
vn -0.0035 0.0018 1.0000
vn -0.1376 0.0066 0.9905
vn -0.3817 -0.0013 0.9243
vn -0.3445 -0.0040 0.9388
vn -0.2615 -0.0003 0.9652
vn -0.1868 0.0059 0.9824
vn 0.0003 -0.6727 0.7399
vn -0.7314 -0.2142 0.6475
vn 0.3431 -0.0041 0.9393
vn 0.2755 -0.0004 0.9613
vn -0.5170 -0.4423 0.7329
vn 0.6450 0.0004 0.7642
vn 0.6257 0.0102 0.7800
vn 0.8629 -0.0015 0.5054
vn 0.8882 0.0075 0.4594
vn 0.9855 -0.0057 0.1693
vn 0.9887 0.0000 0.1499
vn 0.9852 -0.0000 -0.1712
vn 0.9848 0.0000 -0.1736
vn 0.8652 0.0021 -0.5014
vn 0.8631 -0.0000 -0.5050
vn 0.6420 0.0059 -0.7666
vn 0.6100 -0.0016 -0.7924
vn 0.2755 -0.0052 -0.9613
vn 0.3462 0.0024 -0.9382
vn 0.0064 -0.0003 -1.0000
vn 0.0012 -0.0062 -1.0000
vn -0.2543 -0.0179 -0.9670
vn -0.2615 0.0004 -0.9652
vn -0.3445 -0.0040 -0.9388
vn -0.3452 0.0050 -0.9385
vn -0.0005 0.0102 -0.9999
vn -0.3903 0.0430 -0.9197
vn 0.0078 -0.0004 -1.0000
vn 0.2726 0.0007 -0.9621
vn 0.3443 0.0051 -0.9389
vn 0.6121 0.0015 -0.7908
vn 0.9996 -0.0285 0.0059
vn 0.9949 0.0322 -0.0951
vn 0.9435 -0.0070 0.3314
vn 0.9760 0.0203 0.2169
vn -0.6428 0.0000 0.7660
vn -0.8660 0.0000 0.5000
vn -0.9848 0.0000 0.1736
vn -0.9848 0.0000 -0.1736
vn -0.8660 0.0000 -0.5000
vn -0.6428 0.0000 -0.7660
vn 0.0000 1.0000 -0.0000
vn 0.0000 -1.0000 -0.0000
vn -0.1197 -0.9928 0.0055
vn 0.1901 -0.9815 0.0212
vn 0.1775 -0.9841 -0.0052
vn -0.1736 -0.9848 -0.0000
vn 0.1758 0.9844 -0.0034
vn -0.1881 -0.9822 0.0000
vn 0.1695 0.9855 -0.0027
vn 0.5000 0.8660 -0.0000
vn 0.1728 0.9850 -0.0000
vn 0.1152 0.9933 -0.0001
vn -0.1758 0.9844 -0.0031
vn -0.1305 0.9914 -0.0000
vn -0.5000 0.8660 -0.0000
vn -0.4736 0.8807 0.0000
vn -0.7660 0.6428 0.0000
vn -0.7625 0.6470 0.0000
vn -0.9408 0.3390 -0.0000
vn -0.9397 0.3420 -0.0000
vn -1.0000 0.0000 -0.0000
vn -0.9397 -0.3420 -0.0000
vn -0.9408 -0.3390 -0.0000
vn -0.7660 -0.6428 -0.0000
vn -0.7625 -0.6470 -0.0000
vn -0.4999 -0.8661 0.0002
vn -0.4727 -0.8812 -0.0000
vn -0.1769 -0.9842 -0.0042
vn -0.1470 -0.9891 0.0004
vn 0.1768 -0.9842 -0.0048
vn 0.0880 -0.9961 -0.0004
vn 0.3314 -0.9435 -0.0010
vn 0.3298 -0.9440 0.0044
vn 0.4970 -0.8677 -0.0038
vn -0.5000 -0.8660 0.0000
vn -0.4736 -0.8807 0.0000
vn -0.5687 -0.4772 0.6700
vn -0.6976 -0.2539 0.6700
vn -1.0000 -0.0000 0.0000
vn -0.9408 0.3390 0.0000
vn -0.9397 0.3420 0.0000
vn -0.7660 0.6428 -0.0000
vn -0.7625 0.6470 -0.0000
vn -0.5031 0.8642 0.0046
vn -0.4913 0.8710 -0.0000
vn -0.1767 0.9841 0.0159
vn -0.1648 0.9863 -0.0033
vn 0.0380 0.9992 0.0086
vn 0.7660 0.6428 -0.0000
vn 0.9397 0.3420 -0.0000
vn 1.0000 0.0000 -0.0000
vn 0.9397 -0.3420 -0.0000
vn 0.7660 -0.6428 -0.0000
vn 0.5000 -0.8660 -0.0000
vn 0.0000 0.0000 1.0000
vn 0.0000 -0.0000 -1.0000
vn 0.0000 0.0000 -1.0000
vn -0.0000 0.0000 -1.0000
vn -0.0000 -0.0000 -1.0000
# 116 vertex normals

vt 0.0385 0.9171 0.0000
vt 0.0385 0.8772 0.0000
vt 0.1200 0.8879 0.0000
vt 0.1219 0.9353 0.0000
vt 0.1245 0.7224 0.0000
vt 0.1189 0.7523 0.0000
vt 0.0385 0.7466 0.0000
vt 0.0385 0.7170 0.0000
vt 0.0385 0.7012 0.0000
vt 0.1458 0.7053 0.0000
vt 0.1906 0.6993 0.0000
vt 0.0385 0.6722 0.0000
vt 0.6816 0.6722 0.0000
vt 0.3198 0.6775 0.0000
vt 0.2511 0.6789 0.0000
vt 0.1906 0.6801 0.0000
vt 0.0385 0.6782 0.0000
vt 0.6816 0.6802 0.0000
vt 0.3886 0.6789 0.0000
vt 0.6816 0.6992 0.0000
vt 0.6816 0.7072 0.0000
vt 0.4939 0.7053 0.0000
vt 0.4490 0.6993 0.0000
vt 0.6816 0.7302 0.0000
vt 0.5178 0.7284 0.0000
vt 0.6816 0.7655 0.0000
vt 0.5197 0.7758 0.0000
vt 0.6816 0.8088 0.0000
vt 0.5174 0.8088 0.0000
vt 0.5174 0.8549 0.0000
vt 0.6816 0.8549 0.0000
vt 0.6816 0.8982 0.0000
vt 0.5204 0.8982 0.0000
vt 0.6816 0.9335 0.0000
vt 0.5177 0.9351 0.0000
vt 0.4939 0.9584 0.0000
vt 0.6816 0.9565 0.0000
vt 0.4490 0.9644 0.0000
vt 0.6816 0.9645 0.0000
vt 0.4490 0.4150 0.0000
vt 0.6816 0.4149 0.0000
vt 0.3886 0.4162 0.0000
vt 0.3198 0.4176 0.0000
vt 0.6816 0.4229 0.0000
vt 0.0385 0.4229 0.0000
vt 0.0385 0.4149 0.0000
vt 0.2511 0.4162 0.0000
vt 0.1906 0.4150 0.0000
vt 0.1458 0.9584 0.0000
vt 0.1906 0.9644 0.0000
vt 0.0385 0.9645 0.0000
vt 0.0385 0.9565 0.0000
vt 0.0385 0.9335 0.0000
vt 0.0385 0.8318 0.0000
vt 0.1228 0.8435 0.0000
vt 0.0385 0.7865 0.0000
vt 0.1219 0.8016 0.0000
vt 0.0385 0.6492 0.0000
vt 0.6816 0.6492 0.0000
vt 0.0385 0.6139 0.0000
vt 0.6816 0.6139 0.0000
vt 0.0385 0.5706 0.0000
vt 0.6816 0.5706 0.0000
vt 0.0385 0.5245 0.0000
vt 0.6816 0.5245 0.0000
vt 0.0385 0.4812 0.0000
vt 0.6816 0.4812 0.0000
vt 0.0385 0.4459 0.0000
vt 0.6816 0.4459 0.0000
vt 0.0385 0.5929 0.0000
vt 0.0385 0.5476 0.0000
vt 0.0385 0.5022 0.0000
vt 0.0385 0.6624 0.0000
vt 0.0385 0.6328 0.0000
vt 0.0385 0.4623 0.0000
vt 0.6816 0.5476 0.0000
vt 0.2076 0.4175 0.0000
vt 0.2734 0.4163 0.0000
vt 0.0563 0.4175 0.0000
vt 0.6832 0.7008 0.0000
vt 0.3674 0.7014 0.0000
vt 0.0563 0.7008 0.0000
vt 0.0563 0.7167 0.0000
vt 0.6832 0.7167 0.0000
vt 0.3092 0.7008 0.0000
vt 0.4293 0.6995 0.0000
vt 0.4293 0.6829 0.0000
vt 0.6832 0.6816 0.0000
vt 0.4950 0.6816 0.0000
vt 0.6832 0.6657 0.0000
vt 0.5272 0.6657 0.0000
vt 0.6832 0.6358 0.0000
vt 0.5356 0.6358 0.0000
vt 0.5339 0.5954 0.0000
vt 0.6832 0.5954 0.0000
vt 0.5319 0.5496 0.0000
vt 0.6832 0.5496 0.0000
vt 0.6832 0.5037 0.0000
vt 0.5339 0.5037 0.0000
vt 0.6832 0.4634 0.0000
vt 0.5356 0.4634 0.0000
vt 0.6832 0.4335 0.0000
vt 0.5272 0.4335 0.0000
vt 0.6832 0.4175 0.0000
vt 0.4948 0.4176 0.0000
vt 0.4435 0.4158 0.0000
vt 0.3833 0.9646 0.0000
vt 0.4435 0.9666 0.0000
vt 0.6832 0.9649 0.0000
vt 0.3193 0.9646 0.0000
vt 0.0563 0.9490 0.0000
vt 0.2734 0.9662 0.0000
vt 0.0563 0.9649 0.0000
vt 0.0563 0.4335 0.0000
vt 0.1754 0.4335 0.0000
vt 0.1670 0.4634 0.0000
vt 0.0563 0.4634 0.0000
vt 0.0563 0.5037 0.0000
vt 0.1687 0.5037 0.0000
vt 0.1706 0.5496 0.0000
vt 0.0563 0.5496 0.0000
vt 0.1687 0.5954 0.0000
vt 0.0563 0.5954 0.0000
vt 0.0563 0.6358 0.0000
vt 0.1670 0.6358 0.0000
vt 0.0563 0.6657 0.0000
vt 0.1754 0.6657 0.0000
vt 0.1991 0.6799 0.0000
vt 0.0563 0.6816 0.0000
vt 0.2407 0.6988 0.0000
vt 0.2407 0.6836 0.0000
vt 0.0563 0.7467 0.0000
vt 0.6832 0.7467 0.0000
vt 0.0563 0.7870 0.0000
vt 0.6832 0.7870 0.0000
vt 0.0563 0.8328 0.0000
vt 0.6832 0.8328 0.0000
vt 0.0563 0.8787 0.0000
vt 0.6832 0.8787 0.0000
vt 0.0563 0.9190 0.0000
vt 0.6832 0.9190 0.0000
vt 0.6832 0.9490 0.0000
vt 0.4490 0.6801 0.0000
# 143 texture coords

g jm2_m
s 1
f 1/1/1 2/2/2 3/3/3 4/4/4 
f 5/5/5 6/6/6 7/7/7 8/8/8 
f 8/8/8 9/9/9 10/10/10 5/5/5 
f 11/11/11 10/10/10 9/9/9 12/9/12 
f 13/12/13 14/13/14 15/14/15 16/15/16 
f 16/15/16 11/16/11 12/17/12 13/12/13 
f 15/14/15 14/13/14 17/18/17 18/19/18 
f 17/20/17 19/21/19 20/22/20 21/23/21 
f 19/21/19 22/24/22 23/25/23 20/22/20 
f 23/25/23 22/24/22 24/26/24 25/27/25 
f 26/28/26 27/29/27 25/27/25 24/26/24 
f 28/30/28 27/29/27 26/28/26 29/31/29 
f 28/30/28 29/31/29 30/32/30 31/33/31 
f 30/32/30 32/34/32 33/35/33 31/33/31 
f 34/36/34 33/35/33 32/34/32 35/37/35 
f 36/38/36 34/36/34 35/37/35 37/39/37 
f 36/40/36 37/41/37 38/42/38 
f 39/43/39 38/42/38 37/41/37 40/44/40 
f 39/43/39 41/45/41 42/46/42 43/47/43 
f 42/46/42 44/48/44 43/47/43 
f 45/49/45 44/50/44 42/51/42 46/52/46 
f 4/4/4 45/49/45 46/52/46 47/53/47 
f 1/1/1 4/4/4 47/53/47 
f 48/54/48 49/55/49 3/3/3 2/2/2 
f 50/56/50 51/57/51 49/55/49 48/54/48 
f 6/6/6 51/57/51 50/56/50 7/7/7 
f 52/58/52 53/59/52 14/13/14 13/12/13 
f 54/60/53 55/61/53 53/59/52 52/58/52 
f 56/62/54 57/63/54 55/61/53 54/60/53 
f 58/64/55 59/65/55 57/63/54 56/62/54 
f 60/66/56 61/67/56 59/65/55 58/64/55 
f 62/68/57 63/69/57 61/67/56 60/66/56 
f 41/45/41 40/44/40 63/69/57 62/68/57 
f 41/45/41 39/43/39 40/44/40 
s 2
f 50/70/58 48/71/58 64/71/58 
f 64/71/58 48/71/58 2/72/58 
f 8/73/58 7/74/58 64/71/58 
f 64/71/58 7/74/58 50/70/58 
f 9/17/58 8/73/58 64/71/58 
f 13/12/58 12/17/58 64/71/58 
f 64/71/58 12/17/58 9/17/58 
f 54/60/58 52/58/58 64/71/58 
f 64/71/58 52/58/58 13/12/58 
f 56/62/58 64/71/58 58/64/58 
f 64/71/58 56/62/58 54/60/58 
f 60/66/58 58/64/58 64/71/58 
f 64/71/58 62/68/58 60/66/58 
f 42/46/58 41/45/58 64/71/58 
f 64/71/58 41/45/58 62/68/58 
f 46/45/58 42/46/58 64/71/58 
f 1/75/58 47/68/58 64/71/58 
f 64/71/58 47/68/58 46/45/58 
f 64/71/58 2/72/58 1/75/58 
f 30/67/59 29/65/59 65/76/59 
f 65/76/59 29/65/59 26/63/59 
f 65/76/59 32/69/59 30/67/59 
f 35/44/59 65/76/59 37/41/59 
f 65/76/59 35/44/59 32/69/59 
f 40/44/59 37/41/59 65/76/59 
f 65/76/59 63/69/59 40/44/59 
f 59/65/59 61/67/59 65/76/59 
f 65/76/59 61/67/59 63/69/59 
f 57/63/59 59/65/59 65/76/59 
f 53/59/59 55/61/59 65/76/59 
f 65/76/59 55/61/59 57/63/59 
f 17/18/17 14/13/59 65/76/59 
f 65/76/59 14/13/59 53/59/59 
f 65/76/59 19/13/59 17/18/17 
f 65/76/59 22/59/59 19/13/59 
f 26/63/59 24/61/59 65/76/59 
f 65/76/59 24/61/59 22/59/59 
f 23/77/60 25/78/61 66/79/62 67/79/63 
f 68/80/64 49/81/65 69/82/66 70/83/67 
f 68/80/64 70/83/67 71/84/67 
f 49/81/65 51/85/68 69/82/66 
f 68/80/64 3/86/69 49/81/65 
f 3/87/69 68/88/64 72/88/70 4/89/71 
f 73/90/72 45/91/73 4/89/71 72/88/70 
f 74/92/74 44/93/75 45/91/73 73/90/72 
f 43/94/76 44/93/75 74/92/74 75/95/77 
f 39/96/78 43/94/76 75/95/77 76/97/78 
f 39/96/78 76/97/78 77/98/79 38/99/80 
f 77/98/79 78/100/81 36/101/82 38/99/80 
f 78/100/81 79/102/83 34/103/84 36/101/82 
f 79/102/83 80/104/85 33/105/86 34/103/84 
f 80/104/85 81/104/87 31/106/88 33/105/86 
f 28/107/89 31/108/88 81/109/87 
f 27/110/90 28/107/89 82/111/91 25/112/61 
f 66/113/62 25/112/61 82/111/91 
f 23/77/60 67/79/63 83/114/92 20/115/93 
f 21/116/21 20/115/93 83/114/92 84/117/94 
s 3
f 85/118/95 18/119/18 21/116/21 84/117/94 
s 2
f 15/120/96 18/119/18 85/118/95 86/121/96 
f 16/122/97 15/120/96 86/121/96 87/123/98 
f 87/123/98 88/124/99 11/125/100 16/122/97 
f 89/126/101 10/127/102 11/125/100 88/124/99 
f 5/128/103 10/127/102 89/126/101 90/129/104 
f 51/85/68 6/130/105 69/82/66 
f 5/128/103 90/129/104 69/129/66 6/131/105 
f 91/132/106 92/133/106 71/84/67 70/83/67 
f 93/134/107 94/135/107 92/133/106 91/132/106 
f 95/136/108 96/137/108 94/135/107 93/134/107 
f 97/138/109 98/139/109 96/137/108 95/136/108 
f 99/140/110 100/141/110 98/139/109 97/138/109 
f 82/111/91 101/142/111 100/141/110 99/140/110 
f 82/111/91 28/107/89 81/109/87 101/142/111 
s 1
f 69/129/112 102/121/112 70/126/112 
f 102/121/112 69/129/112 90/129/112 
f 91/124/112 70/126/112 102/121/112 
f 93/123/112 91/124/112 102/121/112 
f 97/118/112 95/121/112 102/121/112 
f 102/121/112 95/121/112 93/123/112 
f 99/117/112 97/118/112 102/121/112 
f 66/79/112 82/114/112 102/121/112 
f 102/121/112 82/114/112 99/117/112 
f 67/79/112 66/79/112 102/121/112 
f 84/117/94 83/114/112 102/121/112 
f 102/121/112 83/114/112 67/79/112 
f 86/121/112 85/118/95 102/121/112 
f 102/121/112 85/118/95 84/117/94 
f 87/123/112 86/121/112 102/121/112 
f 102/121/112 88/124/112 87/123/112 
f 90/129/112 89/126/112 102/121/112 
f 102/121/112 89/126/112 88/124/112 
f 73/84/113 72/80/113 103/137/114 
f 103/97/114 72/88/113 68/88/113 
f 74/133/113 73/84/113 103/137/114 
f 76/137/114 75/135/113 103/137/114 
f 103/137/114 75/135/113 74/133/113 
f 77/139/114 76/137/114 103/137/114 
f 103/137/114 78/141/114 77/139/114 
f 80/109/114 79/142/114 103/137/114 
f 103/137/114 79/142/114 78/141/114 
f 81/104/114 80/104/114 103/97/114 
f 100/100/115 101/102/115 103/97/114 
f 103/137/114 101/142/115 81/109/114 
f 96/97/115 98/98/115 103/97/114 
f 103/97/114 98/98/115 100/100/115 
f 94/95/116 103/97/114 92/92/116 
f 103/97/114 94/95/116 96/97/115 
f 71/90/116 92/92/116 103/97/114 
f 68/80/113 71/84/116 103/137/114 
s 3
f 18/19/18 17/18/17 21/143/21 
# 59 polygons - 84 triangles

