# 3ds Max Wavefront OBJ Exporter v0.97b - (c)2007 guruware
# File Created: 11.03.2016 16:52:10

#
# object lm1_200
#

v  32.0063 -5.6436 0.0000
v  32.5000 -0.0000 -10.0000
v  32.0062 5.6435 0.0000
v  28.1458 16.2500 -10.0000
v  28.1458 16.2500 0.0000
v  20.8906 24.8964 -10.0000
v  20.8906 24.8964 0.0000
v  11.1157 30.5400 -10.0000
v  11.1157 30.5400 0.0000
v  -0.0000 32.5000 -10.0000
v  -0.0000 32.5000 0.0000
v  -11.1157 30.5400 -10.0000
v  -11.1157 30.5400 0.0000
v  -20.8906 24.8964 -10.0000
v  -20.8906 24.8964 0.0000
v  -28.1458 16.2500 -10.0000
v  -28.1458 16.2500 0.0000
v  -32.5000 -0.0000 -10.0000
v  -32.0063 5.6435 0.0000
v  -32.0063 -5.6436 0.0000
v  -28.1458 -16.2500 -40.0000
v  -28.1458 -16.2500 0.0000
v  -32.0063 -5.6436 -40.0000
v  -20.8906 -24.8965 -40.0000
v  -20.8906 -24.8965 0.0000
v  -11.1157 -30.5400 -40.0000
v  -11.1157 -30.5400 0.0000
v  -0.0000 -32.5000 -40.0000
v  -0.0000 -32.5000 0.0000
v  11.1157 -30.5400 -40.0000
v  11.1157 -30.5400 0.0000
v  20.8906 -24.8965 -40.0000
v  20.8906 -24.8965 0.0000
v  28.1458 -16.2500 -40.0000
v  28.1458 -16.2500 0.0000
v  32.0062 -5.6436 -40.0000
v  32.5000 -0.0000 -40.0000
v  -0.0000 232.5000 -40.0000
v  11.1157 230.5400 -40.0000
v  20.8906 224.8964 -40.0000
v  -11.1157 230.5400 -40.0000
v  -32.5000 200.0000 -40.0000
v  -32.5000 -0.0000 -40.0000
v  -32.5000 200.0000 -10.0000
v  28.1458 183.7500 -10.0000
v  20.8906 175.1035 -10.0000
v  32.5000 200.0000 -10.0000
v  32.5000 200.0000 -40.0000
v  32.0062 205.6436 -40.0000
v  32.0063 205.6436 0.0000
v  32.0062 194.3564 0.0000
v  28.1458 183.7500 0.0000
v  20.8906 175.1035 0.0000
v  -0.0000 167.5000 0.0000
v  -0.0000 167.5000 -10.0000
v  11.1157 169.4600 -10.0000
v  11.1157 169.4600 0.0000
v  -11.1157 169.4600 0.0000
v  -11.1157 169.4600 -10.0000
v  -20.8906 175.1035 0.0000
v  -20.8906 175.1035 -10.0000
v  -28.1458 183.7500 0.0000
v  -28.1458 183.7500 -10.0000
v  -32.0063 194.3564 0.0000
v  -32.0063 205.6436 0.0000
v  -32.0063 205.6436 -40.0000
v  -28.1458 216.2500 0.0000
v  -28.1458 216.2500 -40.0000
v  -20.8906 224.8964 0.0000
v  -20.8906 224.8964 -40.0000
v  -11.1157 230.5400 0.0000
v  -0.0000 232.5000 0.0000
v  11.1157 230.5400 0.0000
v  20.8906 224.8964 0.0000
v  28.1458 216.2500 0.0000
v  28.1458 216.2500 -40.0000
# 76 vertices

vn 0.9821 -0.1877 0.0168
vn 0.9999 0.0072 -0.0086
vn 0.9810 0.1925 -0.0258
vn 0.8757 0.4824 -0.0232
vn 0.8660 0.5000 0.0000
vn 0.6428 0.7660 0.0000
vn 0.3420 0.9397 0.0000
vn -0.0000 1.0000 0.0000
vn 0.0000 1.0000 -0.0000
vn -0.3420 0.9397 -0.0000
vn -0.6428 0.7660 -0.0000
vn -0.8870 0.4617 -0.0000
vn -0.8797 0.4748 -0.0256
vn -0.9992 0.0144 0.0378
vn -0.9703 0.2279 -0.0807
vn -0.7238 -0.1383 0.6760
vn -0.8660 -0.5000 -0.0000
vn -0.7168 -0.1589 -0.6789
vn -0.6428 -0.7660 -0.0000
vn -0.3420 -0.9397 -0.0000
vn -0.0000 -1.0000 -0.0000
vn 0.3420 -0.9397 -0.0000
vn 0.6428 -0.7660 -0.0000
vn 0.8660 -0.5000 -0.0000
vn 0.9763 -0.2164 -0.0000
vn 0.9990 -0.0436 -0.0000
vn 0.0000 0.0000 -1.0000
vn 0.0000 0.0000 1.0000
vn -0.7160 0.0313 -0.6974
vn -0.7160 -0.0313 -0.6974
vn -0.9994 -0.0072 0.0334
vn 0.9999 -0.0144 -0.0043
vn 0.9990 0.0436 -0.0000
vn 0.9763 0.2164 -0.0000
vn 0.9821 0.1877 0.0168
vn 0.9703 -0.2279 -0.0807
vn 0.8797 -0.4748 -0.0256
vn 0.8870 -0.4617 -0.0000
vn 0.0000 -1.0000 -0.0000
vn -0.8757 -0.4824 -0.0232
vn -0.9810 -0.1925 -0.0258
vn -0.9821 0.1877 0.0168
vn -0.9763 0.2164 -0.0000
vn -0.8660 0.5000 -0.0000
vn -0.0000 1.0000 -0.0000
vn 0.3420 0.9397 -0.0000
vn 0.6428 0.7660 -0.0000
vn 0.8660 0.5000 -0.0000
vn -0.0000 -0.0000 1.0000
vn -0.0000 0.0000 1.0000
# 50 vertex normals

vt 0.0444 0.4216 0.0000
vt 0.0667 0.4342 0.0000
vt 0.0444 0.4468 0.0000
vt 0.0670 0.4717 0.0000
vt 0.0447 0.4719 0.0000
vt 0.0672 0.4968 0.0000
vt 0.0449 0.4971 0.0000
vt 0.0675 0.5220 0.0000
vt 0.0452 0.5222 0.0000
vt 0.0677 0.5472 0.0000
vt 0.0454 0.5474 0.0000
vt 0.0679 0.5724 0.0000
vt 0.0456 0.5726 0.0000
vt 0.0682 0.5975 0.0000
vt 0.0459 0.5977 0.0000
vt 0.0684 0.6227 0.0000
vt 0.0461 0.6229 0.0000
vt 0.0689 0.6602 0.0000
vt 0.0463 0.6480 0.0000
vt 0.0468 0.6732 0.0000
vt 0.5593 0.6468 0.0000
vt 0.6281 0.6468 0.0000
vt 0.6281 0.6662 0.0000
vt 0.5593 0.6662 0.0000
vt 0.5593 0.6274 0.0000
vt 0.6281 0.6274 0.0000
vt 0.5593 0.6080 0.0000
vt 0.6281 0.6080 0.0000
vt 0.5593 0.5886 0.0000
vt 0.6281 0.5886 0.0000
vt 0.5593 0.5692 0.0000
vt 0.6281 0.5692 0.0000
vt 0.5593 0.5498 0.0000
vt 0.6281 0.5498 0.0000
vt 0.5593 0.5304 0.0000
vt 0.6281 0.5304 0.0000
vt 0.5593 0.5110 0.0000
vt 0.6281 0.5110 0.0000
vt 0.5593 0.5013 0.0000
vt 0.6109 0.5013 0.0000
vt 0.6238 0.8672 0.0000
vt 0.6195 0.8915 0.0000
vt 0.6071 0.9128 0.0000
vt 0.6195 0.8429 0.0000
vt 0.4804 0.6477 0.0000
vt 0.6071 0.6482 0.0000
vt 0.5850 0.6666 0.0000
vt 0.5023 0.6663 0.0000
vt 0.1253 0.4224 0.0000
vt 0.5724 0.4240 0.0000
vt 0.5721 0.4911 0.0000
vt 0.1251 0.4894 0.0000
vt 0.1112 0.5207 0.0000
vt 0.5295 0.5200 0.0000
vt 0.5080 0.5382 0.0000
vt 0.1328 0.5388 0.0000
vt 0.5729 0.4867 0.0000
vt 0.1325 0.4846 0.0000
vt 0.1328 0.4185 0.0000
vt 0.5732 0.4206 0.0000
vt 0.5767 0.5042 0.0000
vt 0.6277 0.5042 0.0000
vt 0.6277 0.5138 0.0000
vt 0.5596 0.5138 0.0000
vt 0.0641 0.6611 0.0000
vt 0.0434 0.6729 0.0000
vt 0.0433 0.6494 0.0000
vt 0.0436 0.6260 0.0000
vt 0.0644 0.6262 0.0000
vt 0.0438 0.6026 0.0000
vt 0.0646 0.6027 0.0000
vt 0.0442 0.5557 0.0000
vt 0.0649 0.5558 0.0000
vt 0.0648 0.5793 0.0000
vt 0.0440 0.5791 0.0000
vt 0.0443 0.5322 0.0000
vt 0.0651 0.5324 0.0000
vt 0.0445 0.5088 0.0000
vt 0.0653 0.5089 0.0000
vt 0.0447 0.4853 0.0000
vt 0.0655 0.4855 0.0000
vt 0.0448 0.4619 0.0000
vt 0.0658 0.4505 0.0000
vt 0.0452 0.4384 0.0000
vt 0.5596 0.6676 0.0000
vt 0.6277 0.6676 0.0000
vt 0.6277 0.6772 0.0000
vt 0.5767 0.6772 0.0000
vt 0.5596 0.6483 0.0000
vt 0.6277 0.6483 0.0000
vt 0.5596 0.6291 0.0000
vt 0.6277 0.6291 0.0000
vt 0.5596 0.6099 0.0000
vt 0.6277 0.6099 0.0000
vt 0.5596 0.5907 0.0000
vt 0.6277 0.5907 0.0000
vt 0.5596 0.5715 0.0000
vt 0.6277 0.5715 0.0000
vt 0.5596 0.5522 0.0000
vt 0.6277 0.5522 0.0000
vt 0.5596 0.5330 0.0000
vt 0.6277 0.5330 0.0000
vt 0.5002 0.6691 0.0000
vt 0.5865 0.6699 0.0000
vt 0.5582 0.6799 0.0000
vt 0.5283 0.6796 0.0000
vt 0.4626 0.6236 0.0000
vt 0.6248 0.6250 0.0000
vt 0.6096 0.6508 0.0000
vt 0.4774 0.6497 0.0000
vt 0.4631 0.5646 0.0000
vt 0.6253 0.5660 0.0000
vt 0.6302 0.5955 0.0000
vt 0.4577 0.5941 0.0000
vt 0.5015 0.5197 0.0000
vt 0.5877 0.5205 0.0000
vt 0.6105 0.5399 0.0000
vt 0.4783 0.5388 0.0000
vt 0.5297 0.5097 0.0000
vt 0.5596 0.5100 0.0000
vt 0.6109 0.6760 0.0000
vt 0.5593 0.6760 0.0000
vt 0.5580 0.6763 0.0000
vt 0.5293 0.6762 0.0000
vt 0.4612 0.5945 0.0000
vt 0.6267 0.5951 0.0000
vt 0.6216 0.6234 0.0000
vt 0.4661 0.6228 0.0000
vt 0.4808 0.5414 0.0000
vt 0.6075 0.5419 0.0000
vt 0.6218 0.5668 0.0000
vt 0.4663 0.5662 0.0000
vt 0.5299 0.5133 0.0000
vt 0.5586 0.5134 0.0000
vt 0.5856 0.5233 0.0000
vt 0.5029 0.5230 0.0000
vt 0.0706 0.5099 0.0000
vt 0.5701 0.5091 0.0000
vt 0.4891 0.5904 0.0000
vt 0.1519 0.5909 0.0000
vt 0.1469 0.5632 0.0000
vt 0.4939 0.5626 0.0000
vt 0.5298 0.6606 0.0000
vt 0.5704 0.6715 0.0000
vt 0.0708 0.6723 0.0000
vt 0.1114 0.6613 0.0000
vt 0.4940 0.6182 0.0000
vt 0.1470 0.6187 0.0000
vt 0.5081 0.6426 0.0000
vt 0.1330 0.6432 0.0000
vt 0.5650 0.9370 0.0000
vt 0.5884 0.8057 0.0000
vt 0.6072 0.8215 0.0000
vt 0.5882 0.9286 0.0000
vt 0.5527 0.9381 0.0000
vt 0.1158 0.9375 0.0000
vt 0.5529 0.7961 0.0000
vt 0.5652 0.7972 0.0000
vt 0.0492 0.8907 0.0000
vt 0.0616 0.8208 0.0000
vt 0.0805 0.8050 0.0000
vt 0.0615 0.9121 0.0000
vt 0.0449 0.8665 0.0000
vt 0.0492 0.8422 0.0000
vt 0.1160 0.7956 0.0000
vt 0.1035 0.9364 0.0000
vt 0.0803 0.9280 0.0000
vt 0.1037 0.7966 0.0000
# 168 texture coords

g lm1_200
s 1
f 1/1/1 2/2/2 3/3/3 
f 4/4/4 5/5/5 3/3/3 2/2/2 
f 6/6/6 7/7/6 5/5/5 4/4/4 
f 8/8/7 9/9/7 7/7/6 6/6/6 
f 10/10/8 11/11/9 9/9/7 8/8/7 
f 12/12/10 13/13/10 11/11/9 10/10/8 
f 14/14/11 15/15/11 13/13/10 12/12/10 
f 16/16/12 17/17/13 15/15/11 14/14/11 
f 18/18/14 19/19/15 17/17/13 16/16/12 
f 19/19/15 18/18/14 20/20/16 
f 21/21/17 22/22/17 20/23/16 23/24/18 
f 24/25/19 25/26/19 22/22/17 21/21/17 
f 26/27/20 27/28/20 25/26/19 24/25/19 
f 28/29/21 29/30/21 27/28/20 26/27/20 
f 30/31/22 31/32/22 29/30/21 28/29/21 
f 32/33/23 33/34/23 31/32/22 30/31/22 
f 34/35/24 35/36/24 33/34/23 32/33/23 
f 36/37/25 1/38/1 35/36/24 34/35/24 
f 37/39/26 2/40/2 1/38/1 36/37/25 
s 2
f 38/41/27 39/42/27 40/43/27 41/44/27 
f 7/45/28 33/46/28 35/47/28 5/48/28 
s 3
f 42/49/29 43/50/30 18/51/14 44/52/31 
s 2
f 4/53/28 45/54/28 46/55/28 6/56/28 
s 1
f 47/57/32 2/58/2 37/59/26 48/60/33 
f 47/61/32 48/62/33 49/63/34 50/64/35 
f 47/65/32 50/66/35 51/67/36 
f 52/68/37 45/69/38 47/65/32 51/67/36 
f 53/70/23 46/71/23 45/69/38 52/68/37 
f 54/72/39 55/73/39 56/74/22 57/75/22 
f 58/76/20 59/77/20 55/73/39 54/72/39 
f 60/78/19 61/79/19 59/77/20 58/76/20 
f 62/80/17 63/81/40 61/79/19 60/78/19 
f 64/82/41 44/83/31 63/81/40 62/80/17 
f 44/83/31 64/82/41 65/84/42 
f 65/85/42 66/86/43 42/87/29 44/88/31 
f 67/89/44 68/90/44 66/86/43 65/85/42 
f 69/91/11 70/92/11 68/90/44 67/89/44 
f 71/93/10 41/94/10 70/92/11 69/91/11 
f 72/95/45 38/96/45 41/94/10 71/93/10 
f 73/97/46 39/98/46 38/96/45 72/95/45 
f 74/99/47 40/100/47 39/98/46 73/97/46 
f 75/101/48 76/102/48 40/100/47 74/99/47 
f 75/101/48 50/64/35 49/63/34 76/102/48 
s 2
f 75/103/28 52/104/28 51/105/28 50/106/28 
s 1
f 46/71/23 53/70/23 57/75/22 56/74/22 
s 2
f 73/107/28 57/108/28 53/109/28 74/110/28 
f 52/104/28 75/103/28 74/110/28 53/109/28 
f 71/111/28 58/112/28 54/113/28 72/114/28 
f 57/108/28 73/107/28 72/114/28 54/113/28 
f 67/115/28 62/116/28 60/117/28 69/118/28 
f 58/112/28 71/111/28 69/118/28 60/117/28 
f 65/119/28 64/120/28 62/116/28 67/115/28 
s 3
f 23/24/18 20/23/16 18/121/14 43/122/30 
s 2
f 1/123/28 3/124/28 5/48/28 35/47/28 
f 11/125/28 29/126/28 31/127/28 9/128/28 
f 33/46/28 7/45/28 9/128/28 31/127/28 
f 15/129/28 25/130/28 27/131/28 13/132/28 
f 29/126/28 11/125/28 13/132/28 27/131/28 
f 19/133/28 20/134/16 22/135/28 17/136/28 
f 25/130/28 15/129/28 17/136/28 22/135/28 
f 4/53/28 2/137/28 47/138/28 45/54/28 
f 55/139/28 10/140/28 8/141/28 56/142/28 
f 6/56/28 46/55/28 56/142/28 8/141/28 
f 63/143/49 44/144/31 18/145/14 16/146/50 
f 10/140/28 55/139/28 59/147/28 12/148/28 
f 12/148/28 59/147/28 61/149/28 14/150/28 
f 14/150/28 61/149/28 63/143/49 16/146/50 
f 49/151/27 68/152/27 70/153/27 76/154/27 
f 41/44/27 40/43/27 76/154/27 70/153/27 
f 48/155/27 37/156/27 42/157/29 66/158/27 
f 68/152/27 49/151/27 48/155/27 66/158/27 
f 30/159/27 24/160/27 21/161/27 32/162/27 
f 28/163/27 26/164/27 24/160/27 30/159/27 
f 43/165/30 36/166/27 34/167/27 23/168/18 
f 23/168/18 34/167/27 32/162/27 21/161/27 
f 37/156/27 36/166/27 43/165/30 42/157/29 
# 72 polygons - 4 triangles

