# 3ds Max Wavefront OBJ Exporter v0.97b - (c)2007 guruware
# File Created: 11.03.2016 17:10:24

#
# object lm1_400
#

v  30.5400 11.1157 -10.0000
v  30.5400 11.1157 -0.0000
v  32.5000 0.0000 -0.0000
v  32.5000 0.0000 -10.0000
v  24.8965 20.8906 -10.0000
v  24.8965 20.8906 -0.0000
v  16.2500 28.1458 -10.0000
v  16.2500 28.1458 -0.0000
v  5.6436 32.0063 -10.0000
v  5.6436 32.0063 -0.0000
v  -5.6436 32.0063 -10.0000
v  -5.6436 32.0063 -0.0000
v  -16.2500 28.1458 -10.0000
v  -16.2500 28.1458 -0.0000
v  -24.8964 20.8906 -10.0000
v  -24.8964 20.8906 -0.0000
v  -30.5400 11.1157 -10.0000
v  -30.5400 11.1157 -0.0000
v  -32.5000 0.0000 -10.0000
v  -32.5000 0.0000 -0.0000
v  -32.5000 0.0000 -40.0000
v  -30.5400 -11.1157 -40.0000
v  -30.5400 -11.1157 -0.0000
v  -24.8964 -20.8906 -40.0000
v  -24.8964 -20.8906 -0.0000
v  -16.2500 -28.1458 -40.0000
v  -16.2500 -28.1458 -0.0000
v  -5.6436 -32.0063 -40.0000
v  -5.6436 -32.0063 -0.0000
v  5.6436 -32.0063 -40.0000
v  5.6436 -32.0063 -0.0000
v  16.2500 -28.1458 -40.0000
v  16.2500 -28.1458 -0.0000
v  24.8965 -20.8906 -40.0000
v  24.8965 -20.8906 -0.0000
v  30.5400 -11.1157 -40.0000
v  30.5400 -11.1157 -0.0000
v  32.5000 0.0000 -40.0000
v  -32.5000 400.0000 -40.0000
v  -32.5000 400.0000 -10.0000
v  24.8965 379.1094 -10.0000
v  30.5400 388.8843 -10.0000
v  32.5000 400.0000 -10.0000
v  -30.5400 388.8843 -10.0000
v  -24.8964 379.1094 -10.0000
v  -16.2500 371.8542 -10.0000
v  16.2500 371.8542 -10.0000
v  -5.6436 367.9937 -10.0000
v  5.6436 367.9937 -10.0000
v  32.5000 400.0000 -40.0000
v  30.5400 411.1156 -0.0000
v  32.5000 400.0000 -0.0000
v  30.5400 388.8843 -0.0000
v  24.8965 379.1094 -0.0000
v  16.2500 371.8542 -0.0000
v  5.6436 367.9937 -0.0000
v  -5.6436 367.9937 -0.0000
v  -16.2500 371.8542 -0.0000
v  -24.8964 379.1094 -0.0000
v  -30.5400 388.8843 -0.0000
v  -32.5000 400.0000 -0.0000
v  -30.5400 411.1156 -0.0000
v  -30.5400 411.1156 -40.0000
v  -24.8964 420.8906 -0.0000
v  -24.8964 420.8906 -40.0000
v  -16.2500 428.1458 -0.0000
v  -16.2500 428.1458 -40.0000
v  -5.6436 432.0063 -0.0000
v  -5.6436 432.0063 -40.0000
v  5.6436 432.0063 -0.0000
v  5.6436 432.0063 -40.0000
v  16.2500 428.1458 -0.0000
v  16.2500 428.1458 -40.0000
v  24.8965 420.8906 -0.0000
v  24.8965 420.8906 -40.0000
v  30.5400 411.1156 -40.0000
# 76 vertices

vn 0.9397 0.3420 -0.0000
vn 1.0000 0.0000 -0.0000
vn 0.9962 0.0872 -0.0000
vn 0.7660 0.6428 -0.0000
vn 0.5000 0.8660 -0.0000
vn 0.1736 0.9848 -0.0000
vn -0.1736 0.9848 -0.0000
vn -0.5000 0.8660 -0.0000
vn -0.7660 0.6428 -0.0000
vn -0.9397 0.3420 -0.0000
vn -0.9986 -0.0439 0.0281
vn -1.0000 0.0000 -0.0000
vn -0.7229 -0.0632 -0.6880
vn -0.9397 -0.3420 -0.0000
vn -0.7660 -0.6428 -0.0000
vn -0.5000 -0.8660 -0.0000
vn -0.1736 -0.9848 -0.0000
vn 0.1736 -0.9848 -0.0000
vn 0.5000 -0.8660 -0.0000
vn 0.7660 -0.6428 -0.0000
vn 0.9397 -0.3420 -0.0000
vn 0.9962 -0.0872 -0.0000
vn 0.0000 0.0000 -1.0000
vn 0.0000 0.0000 1.0000
vn -0.7229 0.0632 -0.6880
vn -0.9986 0.0439 0.0281
vn 0.0000 -0.0000 1.0000
vn -0.0000 -0.0000 1.0000
vn -0.0000 0.0000 1.0000
vn 0.9990 0.0439 -0.0000
vn 0.1737 -0.9848 -0.0000
vn -0.1737 -0.9848 -0.0000
vn -0.5000 0.8660 0.0000
vn -0.1736 0.9848 0.0000
vn 0.1736 0.9848 0.0000
vn 0.1737 0.9848 -0.0000
# 36 vertex normals

vt 0.0683 0.4573 0.0000
vt 0.0461 0.4573 0.0000
vt 0.0461 0.4322 0.0000
vt 0.0683 0.4322 0.0000
vt 0.0683 0.4825 0.0000
vt 0.0461 0.4825 0.0000
vt 0.0683 0.5076 0.0000
vt 0.0461 0.5076 0.0000
vt 0.0683 0.5328 0.0000
vt 0.0461 0.5328 0.0000
vt 0.0683 0.5579 0.0000
vt 0.0461 0.5579 0.0000
vt 0.0683 0.5831 0.0000
vt 0.0461 0.5831 0.0000
vt 0.0683 0.6082 0.0000
vt 0.0461 0.6082 0.0000
vt 0.0683 0.6334 0.0000
vt 0.0461 0.6334 0.0000
vt 0.0683 0.6585 0.0000
vt 0.0461 0.6585 0.0000
vt 0.5872 0.6751 0.0000
vt 0.5872 0.6646 0.0000
vt 0.6246 0.6646 0.0000
vt 0.6152 0.6751 0.0000
vt 0.6246 0.6751 0.0000
vt 0.5872 0.6540 0.0000
vt 0.6246 0.6540 0.0000
vt 0.5872 0.6435 0.0000
vt 0.6246 0.6435 0.0000
vt 0.5872 0.6329 0.0000
vt 0.6246 0.6329 0.0000
vt 0.5872 0.6224 0.0000
vt 0.6246 0.6224 0.0000
vt 0.5872 0.6118 0.0000
vt 0.6246 0.6118 0.0000
vt 0.5872 0.6013 0.0000
vt 0.6246 0.6013 0.0000
vt 0.5872 0.5907 0.0000
vt 0.6246 0.5907 0.0000
vt 0.5872 0.5802 0.0000
vt 0.6152 0.5802 0.0000
vt 0.6246 0.5802 0.0000
vt 0.0495 0.9117 0.0000
vt 0.0495 0.8715 0.0000
vt 0.0585 0.8608 0.0000
vt 0.0585 0.9224 0.0000
vt 0.5594 0.6716 0.0000
vt 0.5458 0.6637 0.0000
vt 0.5906 0.6718 0.0000
vt 0.5750 0.6744 0.0000
vt 0.5734 0.4582 0.0000
vt 0.1316 0.4555 0.0000
vt 0.1318 0.4223 0.0000
vt 0.5736 0.4250 0.0000
vt 0.5810 0.5945 0.0000
vt 0.0798 0.5914 0.0000
vt 0.0662 0.5834 0.0000
vt 0.5948 0.5867 0.0000
vt 0.0507 0.5805 0.0000
vt 0.6103 0.5841 0.0000
vt 0.0657 0.6688 0.0000
vt 0.5942 0.6722 0.0000
vt 0.6098 0.6750 0.0000
vt 0.0501 0.6715 0.0000
vt 0.0794 0.6610 0.0000
vt 0.5806 0.6642 0.0000
vt 0.0896 0.6490 0.0000
vt 0.5705 0.6520 0.0000
vt 0.5708 0.6066 0.0000
vt 0.0899 0.6035 0.0000
vt 0.0951 0.6342 0.0000
vt 0.5652 0.6371 0.0000
vt 0.5653 0.6214 0.0000
vt 0.0952 0.6184 0.0000
vt 0.1198 0.4217 0.0000
vt 0.5855 0.4238 0.0000
vt 0.5854 0.4588 0.0000
vt 0.1196 0.4566 0.0000
vt 0.5896 0.5869 0.0000
vt 0.5896 0.5759 0.0000
vt 0.5993 0.5759 0.0000
vt 0.0427 0.6299 0.0000
vt 0.0660 0.6299 0.0000
vt 0.0660 0.6561 0.0000
vt 0.0427 0.6561 0.0000
vt 0.0427 0.6036 0.0000
vt 0.0660 0.6036 0.0000
vt 0.0427 0.5774 0.0000
vt 0.0660 0.5774 0.0000
vt 0.0427 0.5512 0.0000
vt 0.0660 0.5512 0.0000
vt 0.0427 0.5250 0.0000
vt 0.0660 0.5250 0.0000
vt 0.0427 0.4987 0.0000
vt 0.0660 0.4987 0.0000
vt 0.0427 0.4725 0.0000
vt 0.0660 0.4725 0.0000
vt 0.0427 0.4463 0.0000
vt 0.0660 0.4463 0.0000
vt 0.0427 0.4201 0.0000
vt 0.0660 0.4201 0.0000
vt 0.5993 0.6744 0.0000
vt 0.5896 0.6744 0.0000
vt 0.5896 0.6635 0.0000
vt 0.6284 0.6635 0.0000
vt 0.6284 0.6744 0.0000
vt 0.5896 0.6525 0.0000
vt 0.6284 0.6525 0.0000
vt 0.5896 0.6416 0.0000
vt 0.6284 0.6416 0.0000
vt 0.5896 0.6306 0.0000
vt 0.6284 0.6306 0.0000
vt 0.5896 0.6197 0.0000
vt 0.6284 0.6197 0.0000
vt 0.5896 0.6088 0.0000
vt 0.6284 0.6088 0.0000
vt 0.5896 0.5978 0.0000
vt 0.6284 0.5978 0.0000
vt 0.6284 0.5869 0.0000
vt 0.6284 0.5759 0.0000
vt 0.6156 0.6082 0.0000
vt 0.5499 0.5977 0.0000
vt 0.5629 0.5899 0.0000
vt 0.6057 0.5968 0.0000
vt 0.5777 0.5871 0.0000
vt 0.5925 0.5895 0.0000
vt 0.6212 0.6374 0.0000
vt 0.5354 0.6236 0.0000
vt 0.5404 0.6094 0.0000
vt 0.6209 0.6223 0.0000
vt 0.6067 0.6633 0.0000
vt 0.5410 0.6528 0.0000
vt 0.5357 0.6387 0.0000
vt 0.6162 0.6516 0.0000
vt 0.5790 0.6739 0.0000
vt 0.5641 0.6715 0.0000
vt 0.5509 0.6642 0.0000
vt 0.5938 0.6711 0.0000
vt 0.5303 0.6366 0.0000
vt 0.6145 0.6518 0.0000
vt 0.6043 0.6639 0.0000
vt 0.5357 0.6515 0.0000
vt 0.5358 0.6060 0.0000
vt 0.6201 0.6212 0.0000
vt 0.6200 0.6370 0.0000
vt 0.5304 0.6208 0.0000
vt 0.5598 0.5860 0.0000
vt 0.6046 0.5941 0.0000
vt 0.6147 0.6063 0.0000
vt 0.5461 0.5939 0.0000
vt 0.5754 0.5834 0.0000
vt 0.5909 0.5862 0.0000
vt 0.0447 0.8986 0.0000
vt 0.0447 0.8846 0.0000
vt 0.0843 0.8514 0.0000
vt 0.0843 0.9318 0.0000
vt 0.0706 0.9294 0.0000
vt 0.0706 0.8538 0.0000
vt 0.6187 0.8845 0.0000
vt 0.6187 0.8985 0.0000
vt 0.6140 0.9116 0.0000
vt 0.6140 0.8714 0.0000
vt 0.5929 0.9293 0.0000
vt 0.5929 0.8537 0.0000
vt 0.6050 0.8607 0.0000
vt 0.6050 0.9223 0.0000
vt 0.5791 0.9317 0.0000
vt 0.5791 0.8513 0.0000
# 168 texture coords

g lm1_400
s 1
f 1/1/1 2/2/1 3/3/2 4/4/3 
f 5/5/4 6/6/4 2/2/1 1/1/1 
f 7/7/5 8/8/5 6/6/4 5/5/4 
f 9/9/6 10/10/6 8/8/5 7/7/5 
f 11/11/7 12/12/7 10/10/6 9/9/6 
f 13/13/8 14/14/8 12/12/7 11/11/7 
f 15/15/9 16/16/9 14/14/8 13/13/8 
f 17/17/10 18/18/10 16/16/9 15/15/9 
f 19/19/11 20/20/12 18/18/10 17/17/10 
f 21/21/13 22/22/14 23/23/14 19/24/11 
f 20/25/12 19/24/11 23/23/14 
f 24/26/15 25/27/15 23/23/14 22/22/14 
f 26/28/16 27/29/16 25/27/15 24/26/15 
f 28/30/17 29/31/17 27/29/16 26/28/16 
f 30/32/18 31/33/18 29/31/17 28/30/17 
f 32/34/19 33/35/19 31/33/18 30/32/18 
f 34/36/20 35/37/20 33/35/19 32/34/19 
f 36/38/21 37/39/21 35/37/20 34/36/20 
f 38/40/22 4/41/3 3/42/2 36/38/21 
f 37/39/21 36/38/21 3/42/2 
s 2
f 32/43/23 26/44/23 24/45/23 34/46/23 
f 2/47/24 6/48/24 37/49/24 3/50/24 
s 3
f 39/51/25 21/52/13 19/53/11 40/54/26 
s 2
f 41/55/24 5/56/24 1/57/24 42/58/24 
f 42/58/24 1/57/24 4/59/24 43/60/24 
f 17/61/24 44/62/24 40/63/26 19/64/11 
f 17/61/24 15/65/24 45/66/24 44/62/24 
f 15/65/24 13/67/24 46/68/27 45/66/24 
f 5/56/24 41/55/24 47/69/24 7/70/24 
f 11/71/27 48/72/28 46/68/27 13/67/24 
f 47/69/24 49/73/28 9/74/29 7/70/24 
f 49/73/28 48/72/28 11/71/27 9/74/29 
s 1
f 43/75/30 4/76/3 38/77/22 50/78/3 
f 51/79/1 52/80/2 43/81/30 
f 53/82/21 42/83/21 43/84/30 52/85/2 
f 54/86/20 41/87/20 42/83/21 53/82/21 
f 55/88/19 47/89/19 41/87/20 54/86/20 
f 56/90/31 49/91/31 47/89/19 55/88/19 
f 57/92/32 48/93/32 49/91/31 56/90/31 
f 58/94/16 46/95/16 48/93/32 57/92/32 
f 59/96/15 45/97/15 46/95/16 58/94/16 
f 60/98/14 44/99/14 45/97/15 59/96/15 
f 61/100/12 40/101/26 44/99/14 60/98/14 
f 40/102/26 61/103/12 62/104/10 
f 62/104/10 63/105/10 39/106/25 40/102/26 
f 64/107/9 65/108/9 63/105/10 62/104/10 
f 66/109/8 67/110/33 65/108/9 64/107/9 
f 68/111/34 69/112/34 67/110/33 66/109/8 
f 70/113/35 71/114/36 69/112/34 68/111/34 
f 72/115/5 73/116/5 71/114/36 70/113/35 
f 74/117/4 75/118/4 73/116/5 72/115/5 
f 51/79/1 76/119/1 75/118/4 74/117/4 
f 51/79/1 43/81/30 50/120/3 76/119/1 
s 2
f 72/121/24 54/122/24 53/123/24 74/124/24 
f 52/125/24 51/126/24 74/124/24 53/123/24 
f 68/127/24 56/128/24 55/129/24 70/130/24 
f 54/122/24 72/121/24 70/130/24 55/129/24 
f 64/131/24 58/132/24 57/133/24 66/134/24 
f 56/128/24 68/127/24 66/134/24 57/133/24 
f 61/135/24 60/136/24 59/137/24 62/138/24 
f 58/132/24 64/131/24 62/138/24 59/137/24 
f 10/139/24 33/140/24 35/141/24 8/142/24 
f 37/49/24 6/48/24 8/142/24 35/141/24 
f 14/143/24 29/144/24 31/145/24 12/146/24 
f 33/140/24 10/139/24 12/146/24 31/145/24 
f 18/147/24 25/148/24 27/149/24 16/150/24 
f 29/144/24 14/143/24 16/150/24 27/149/24 
f 20/151/24 23/152/24 25/148/24 18/147/24 
f 30/153/23 28/154/23 26/44/23 32/43/23 
f 21/155/13 38/156/23 36/157/23 22/158/23 
f 34/46/23 24/45/23 22/158/23 36/157/23 
f 69/159/23 71/160/23 73/161/23 67/162/23 
f 76/163/23 63/164/23 65/165/23 75/166/23 
f 67/162/23 73/161/23 75/166/23 65/165/23 
f 50/167/23 38/156/23 21/155/13 39/168/25 
f 50/167/23 39/168/25 63/164/23 76/163/23 
# 72 polygons - 4 triangles

