# 3ds Max Wavefront OBJ Exporter v0.97b - (c)2007 guruware
# File Created: 11.03.2016 16:58:26

#
# object lm1_300
#

v  32.0063 -5.6436 -0.0000
v  32.5001 -0.0000 -10.0000
v  32.0063 5.6435 -0.0000
v  28.1459 16.2500 -10.0000
v  28.1459 16.2500 -0.0000
v  20.8907 24.8964 -10.0000
v  20.8907 24.8964 -0.0000
v  11.1157 30.5400 -10.0000
v  11.1157 30.5400 -0.0000
v  0.0001 32.5000 -10.0000
v  0.0001 32.5000 -0.0000
v  -11.1156 30.5400 -10.0000
v  -11.1156 30.5400 -0.0000
v  -20.8905 24.8964 -10.0000
v  -20.8905 24.8964 -0.0000
v  -28.1458 16.2500 -10.0000
v  -28.1458 16.2500 -0.0000
v  -32.4999 -0.0000 -10.0000
v  -32.0062 5.6435 -0.0000
v  -32.0062 -5.6436 -0.0000
v  -28.1458 -16.2500 -40.0000
v  -28.1458 -16.2500 -0.0000
v  -32.0062 -5.6436 -40.0000
v  -20.8905 -24.8965 -40.0000
v  -20.8905 -24.8965 -0.0000
v  -11.1156 -30.5400 -40.0000
v  -11.1156 -30.5400 -0.0000
v  0.0001 -32.5000 -40.0000
v  0.0001 -32.5000 -0.0000
v  11.1157 -30.5400 -40.0000
v  11.1157 -30.5400 -0.0000
v  20.8907 -24.8965 -40.0000
v  20.8907 -24.8965 -0.0000
v  28.1459 -16.2500 -40.0000
v  28.1459 -16.2500 -0.0000
v  32.0063 -5.6436 -40.0000
v  32.5001 -0.0000 -40.0000
v  -11.1156 330.5400 -40.0000
v  0.0001 332.5000 -40.0000
v  11.1157 330.5400 -40.0000
v  -20.8905 324.8964 -40.0000
v  -32.4999 300.0000 -40.0000
v  -32.4999 -0.0000 -40.0000
v  -32.4999 300.0000 -10.0000
v  28.1459 283.7500 -10.0000
v  20.8907 275.1036 -10.0000
v  32.5001 300.0000 -10.0000
v  32.5001 300.0000 -40.0000
v  32.0063 305.6436 -40.0000
v  32.0063 305.6436 -0.0000
v  32.0063 294.3564 -0.0000
v  28.1459 283.7500 -0.0000
v  20.8907 275.1036 -0.0000
v  11.1157 269.4600 -0.0000
v  11.1157 269.4600 -10.0000
v  0.0001 267.5000 -0.0000
v  0.0001 267.5000 -10.0000
v  -11.1156 269.4600 -0.0000
v  -11.1156 269.4600 -10.0000
v  -20.8905 275.1036 -0.0000
v  -20.8905 275.1036 -10.0000
v  -28.1458 283.7500 -0.0000
v  -28.1458 283.7500 -10.0000
v  -32.0062 294.3564 -0.0000
v  -32.0062 305.6436 -0.0000
v  -32.0062 305.6436 -40.0000
v  -28.1458 316.2500 -0.0000
v  -28.1458 316.2500 -40.0000
v  -20.8905 324.8964 -0.0000
v  -11.1156 330.5400 -0.0000
v  0.0001 332.5000 -0.0000
v  11.1157 330.5400 -0.0000
v  20.8907 324.8964 -0.0000
v  20.8907 324.8964 -40.0000
v  28.1459 316.2500 -0.0000
v  28.1459 316.2500 -40.0000
# 76 vertices

vn 0.9821 -0.1877 0.0168
vn 0.9999 0.0072 -0.0086
vn 0.9810 0.1925 -0.0258
vn 0.8757 0.4824 -0.0232
vn 0.8660 0.5000 -0.0000
vn 0.6428 0.7660 -0.0000
vn 0.3420 0.9397 -0.0000
vn 0.0000 1.0000 -0.0000
vn -0.3420 0.9397 -0.0000
vn -0.6428 0.7660 -0.0000
vn -0.8870 0.4617 -0.0000
vn -0.8797 0.4748 -0.0256
vn -0.9992 0.0144 0.0378
vn -0.9703 0.2279 -0.0807
vn -0.7238 -0.1383 0.6760
vn -0.8660 -0.5000 -0.0000
vn -0.7168 -0.1589 -0.6789
vn -0.6428 -0.7660 -0.0000
vn -0.3420 -0.9397 -0.0000
vn -0.0000 -1.0000 -0.0000
vn 0.3420 -0.9397 -0.0000
vn 0.6428 -0.7660 -0.0000
vn 0.8660 -0.5000 -0.0000
vn 0.9763 -0.2164 -0.0000
vn 0.9990 -0.0436 -0.0000
vn 0.0000 0.0000 -1.0000
vn 0.0000 0.0000 1.0000
vn -0.7160 0.0313 -0.6974
vn -0.7160 -0.0313 -0.6974
vn -0.9994 -0.0072 0.0334
vn -0.0000 -0.0000 1.0000
vn 0.9999 -0.0144 -0.0043
vn 0.9990 0.0436 -0.0000
vn 0.9763 0.2164 -0.0000
vn 0.9821 0.1877 0.0168
vn 0.9703 -0.2279 -0.0807
vn 0.8797 -0.4748 -0.0256
vn 0.8870 -0.4617 -0.0000
vn -0.8757 -0.4824 -0.0232
vn -0.9810 -0.1925 -0.0258
vn -0.9821 0.1877 0.0168
vn -0.9763 0.2164 -0.0000
vn -0.8660 0.5000 -0.0000
vn -0.0000 1.0000 -0.0000
# 44 vertex normals

vt 0.0442 0.4194 0.0000
vt 0.0669 0.4322 0.0000
vt 0.0442 0.4450 0.0000
vt 0.0672 0.4703 0.0000
vt 0.0445 0.4706 0.0000
vt 0.0674 0.4960 0.0000
vt 0.0447 0.4962 0.0000
vt 0.0677 0.5216 0.0000
vt 0.0450 0.5218 0.0000
vt 0.0679 0.5472 0.0000
vt 0.0452 0.5474 0.0000
vt 0.0681 0.5728 0.0000
vt 0.0454 0.5730 0.0000
vt 0.0684 0.5984 0.0000
vt 0.0457 0.5986 0.0000
vt 0.0686 0.6240 0.0000
vt 0.0460 0.6242 0.0000
vt 0.0691 0.6622 0.0000
vt 0.0461 0.6498 0.0000
vt 0.0466 0.6754 0.0000
vt 0.5737 0.6521 0.0000
vt 0.6219 0.6521 0.0000
vt 0.6219 0.6656 0.0000
vt 0.5737 0.6656 0.0000
vt 0.5737 0.6385 0.0000
vt 0.6219 0.6385 0.0000
vt 0.5737 0.6249 0.0000
vt 0.6219 0.6249 0.0000
vt 0.5737 0.6113 0.0000
vt 0.6219 0.6113 0.0000
vt 0.5737 0.5977 0.0000
vt 0.6219 0.5977 0.0000
vt 0.5737 0.5841 0.0000
vt 0.6219 0.5841 0.0000
vt 0.5737 0.5705 0.0000
vt 0.6219 0.5705 0.0000
vt 0.5737 0.5569 0.0000
vt 0.6219 0.5569 0.0000
vt 0.5737 0.5501 0.0000
vt 0.6098 0.5501 0.0000
vt 0.6241 0.8701 0.0000
vt 0.6272 0.8880 0.0000
vt 0.6240 0.9059 0.0000
vt 0.6151 0.8544 0.0000
vt 0.6072 0.8327 0.0000
vt 0.4854 0.8337 0.0000
vt 0.5064 0.8158 0.0000
vt 0.5859 0.8151 0.0000
vt 0.5743 0.4623 0.0000
vt 0.1311 0.4625 0.0000
vt 0.1311 0.4182 0.0000
vt 0.5743 0.4179 0.0000
vt 0.0729 0.5590 0.0000
vt 0.5880 0.5593 0.0000
vt 0.5713 0.5733 0.0000
vt 0.0895 0.5729 0.0000
vt 0.5775 0.4661 0.0000
vt 0.1276 0.4635 0.0000
vt 0.1279 0.4185 0.0000
vt 0.5777 0.4211 0.0000
vt 0.5850 0.5484 0.0000
vt 0.6234 0.5484 0.0000
vt 0.6234 0.5556 0.0000
vt 0.5722 0.5556 0.0000
vt 0.0667 0.6626 0.0000
vt 0.0444 0.6752 0.0000
vt 0.0444 0.6500 0.0000
vt 0.0448 0.6249 0.0000
vt 0.0670 0.6251 0.0000
vt 0.0445 0.6500 0.0000
vt 0.0450 0.5998 0.0000
vt 0.0673 0.6000 0.0000
vt 0.0671 0.6251 0.0000
vt 0.0452 0.5746 0.0000
vt 0.0675 0.5748 0.0000
vt 0.0455 0.5495 0.0000
vt 0.0678 0.5497 0.0000
vt 0.0457 0.5243 0.0000
vt 0.0680 0.5245 0.0000
vt 0.0460 0.4992 0.0000
vt 0.0682 0.4994 0.0000
vt 0.0462 0.4740 0.0000
vt 0.0685 0.4742 0.0000
vt 0.0464 0.4489 0.0000
vt 0.0689 0.4367 0.0000
vt 0.0684 0.4742 0.0000
vt 0.0468 0.4237 0.0000
vt 0.5722 0.6711 0.0000
vt 0.6234 0.6711 0.0000
vt 0.6234 0.6783 0.0000
vt 0.5850 0.6783 0.0000
vt 0.5722 0.6566 0.0000
vt 0.6234 0.6566 0.0000
vt 0.5722 0.6422 0.0000
vt 0.6234 0.6422 0.0000
vt 0.5722 0.6278 0.0000
vt 0.6234 0.6278 0.0000
vt 0.5722 0.6133 0.0000
vt 0.6234 0.6133 0.0000
vt 0.5722 0.5989 0.0000
vt 0.6234 0.5989 0.0000
vt 0.5722 0.5845 0.0000
vt 0.6234 0.5845 0.0000
vt 0.5722 0.5700 0.0000
vt 0.6234 0.5700 0.0000
vt 0.5551 0.8076 0.0000
vt 0.5802 0.8167 0.0000
vt 0.5033 0.8168 0.0000
vt 0.5284 0.8076 0.0000
vt 0.6098 0.6725 0.0000
vt 0.5737 0.6725 0.0000
vt 0.6141 0.8569 0.0000
vt 0.4696 0.8572 0.0000
vt 0.4829 0.8340 0.0000
vt 0.6007 0.8338 0.0000
vt 0.6142 0.9095 0.0000
vt 0.4697 0.9097 0.0000
vt 0.4650 0.8834 0.0000
vt 0.6188 0.8832 0.0000
vt 0.5804 0.9498 0.0000
vt 0.5036 0.9499 0.0000
vt 0.4831 0.9328 0.0000
vt 0.6009 0.9326 0.0000
vt 0.5554 0.9590 0.0000
vt 0.5287 0.9590 0.0000
vt 0.5323 0.8061 0.0000
vt 0.5599 0.8059 0.0000
vt 0.6262 0.8836 0.0000
vt 0.4672 0.8850 0.0000
vt 0.4718 0.8578 0.0000
vt 0.6212 0.8565 0.0000
vt 0.6081 0.9349 0.0000
vt 0.4863 0.9359 0.0000
vt 0.4723 0.9121 0.0000
vt 0.6217 0.9109 0.0000
vt 0.5612 0.9625 0.0000
vt 0.5336 0.9627 0.0000
vt 0.5076 0.9535 0.0000
vt 0.5871 0.9528 0.0000
vt 0.0416 0.5506 0.0000
vt 0.6193 0.5510 0.0000
vt 0.5567 0.6135 0.0000
vt 0.1041 0.6132 0.0000
vt 0.1004 0.5918 0.0000
vt 0.5605 0.5921 0.0000
vt 0.5879 0.6677 0.0000
vt 0.0728 0.6674 0.0000
vt 0.0895 0.6534 0.0000
vt 0.5713 0.6537 0.0000
vt 0.6192 0.6761 0.0000
vt 0.0415 0.6757 0.0000
vt 0.5604 0.6349 0.0000
vt 0.1004 0.6346 0.0000
vt 0.6010 0.9332 0.0000
vt 0.5842 0.8365 0.0000
vt 0.6012 0.8427 0.0000
vt 0.6149 0.9216 0.0000
vt 0.5749 0.9401 0.0000
vt 0.0928 0.8347 0.0000
vt 0.5751 0.8356 0.0000
vt 0.5840 0.9394 0.0000
vt 0.0926 0.9392 0.0000
vt 0.0836 0.9384 0.0000
vt 0.0667 0.8417 0.0000
vt 0.0838 0.8355 0.0000
vt 0.0526 0.9205 0.0000
vt 0.0437 0.8690 0.0000
vt 0.0528 0.8533 0.0000
vt 0.0665 0.9322 0.0000
vt 0.0436 0.9047 0.0000
vt 0.0405 0.8869 0.0000
# 171 texture coords

g lm1_300
s 1
f 1/1/1 2/2/2 3/3/3 
f 4/4/4 5/5/5 3/3/3 2/2/2 
f 6/6/6 7/7/6 5/5/5 4/4/4 
f 8/8/7 9/9/7 7/7/6 6/6/6 
f 10/10/8 11/11/8 9/9/7 8/8/7 
f 12/12/9 13/13/9 11/11/8 10/10/8 
f 14/14/10 15/15/10 13/13/9 12/12/9 
f 16/16/11 17/17/12 15/15/10 14/14/10 
f 18/18/13 19/19/14 17/17/12 16/16/11 
f 19/19/14 18/18/13 20/20/15 
f 21/21/16 22/22/16 20/23/15 23/24/17 
f 24/25/18 25/26/18 22/22/16 21/21/16 
f 26/27/19 27/28/19 25/26/18 24/25/18 
f 28/29/20 29/30/20 27/28/19 26/27/19 
f 30/31/21 31/32/21 29/30/20 28/29/20 
f 32/33/22 33/34/22 31/32/21 30/31/21 
f 34/35/23 35/36/23 33/34/22 32/33/22 
f 36/37/24 1/38/1 35/36/23 34/35/23 
f 37/39/25 2/40/2 1/38/1 36/37/24 
s 2
f 38/41/26 39/42/26 40/43/26 41/44/26 
f 7/45/27 33/46/27 35/47/27 5/48/27 
s 3
f 42/49/28 43/50/29 18/51/13 44/52/30 
s 2
f 4/53/27 45/54/27 46/55/27 6/56/31 
s 1
f 47/57/32 2/58/2 37/59/25 48/60/33 
f 47/61/32 48/62/33 49/63/34 50/64/35 
f 47/65/32 50/66/35 51/67/36 
f 52/68/37 45/69/38 47/65/32 51/70/36 
f 53/71/22 46/72/22 45/73/38 52/68/37 
f 54/74/21 55/75/21 46/72/22 53/71/22 
f 56/76/20 57/77/20 55/75/21 54/74/21 
f 58/78/19 59/79/19 57/77/20 56/76/20 
f 58/78/19 60/80/18 61/81/18 59/79/19 
f 62/82/16 63/83/39 61/81/18 60/80/18 
f 64/84/40 44/85/30 63/86/39 62/82/16 
f 44/85/30 64/84/40 65/87/41 
f 65/88/41 66/89/42 42/90/28 44/91/30 
f 67/92/43 68/93/43 66/89/42 65/88/41 
f 69/94/10 41/95/10 68/93/43 67/92/43 
f 70/96/9 38/97/9 41/95/10 69/94/10 
f 71/98/44 39/99/44 38/97/9 70/96/9 
f 72/100/7 40/101/7 39/99/44 71/98/44 
f 73/102/6 74/103/6 40/101/7 72/100/7 
f 75/104/5 76/105/5 74/103/6 73/102/6 
f 50/64/35 49/63/34 76/105/5 75/104/5 
s 2
f 50/106/27 75/107/27 52/108/27 51/109/27 
s 3
f 23/24/17 20/23/15 18/110/13 43/111/29 
s 2
f 72/112/27 54/113/27 53/114/27 73/115/27 
f 52/108/27 75/107/27 73/115/27 53/114/27 
f 70/116/27 58/117/27 56/118/27 71/119/27 
f 54/113/27 72/112/27 71/119/27 56/118/27 
f 67/120/27 62/121/27 60/122/27 69/123/27 
f 58/117/27 70/116/27 69/123/27 60/122/27 
f 65/124/27 64/125/27 62/121/27 67/120/27 
f 1/126/27 3/127/27 5/48/27 35/47/27 
f 11/128/27 29/129/27 31/130/27 9/131/27 
f 33/46/27 7/45/27 9/131/27 31/130/27 
f 15/132/27 25/133/27 27/134/27 13/135/27 
f 29/129/27 11/128/27 13/135/27 27/134/27 
f 19/136/27 20/137/15 22/138/27 17/139/27 
f 25/133/27 15/132/27 17/139/27 22/138/27 
f 2/140/27 47/141/27 45/54/27 4/53/27 
f 57/142/31 10/143/27 8/144/31 55/145/31 
f 6/56/31 46/55/27 55/145/31 8/144/31 
f 63/146/27 16/147/27 14/148/27 61/149/27 
f 44/150/30 18/151/13 16/147/27 63/146/27 
f 10/143/27 57/142/31 59/152/27 12/153/27 
f 61/149/27 14/148/27 12/153/27 59/152/27 
f 76/154/26 66/155/26 68/156/26 74/157/26 
f 41/44/26 40/43/26 74/157/26 68/156/26 
f 48/158/26 43/159/29 42/160/28 49/161/26 
f 42/160/28 66/155/26 76/154/26 49/161/26 
f 37/162/26 36/163/26 21/164/26 23/165/17 
f 43/159/29 48/158/26 37/162/26 23/165/17 
f 32/166/26 26/167/26 24/168/26 34/169/26 
f 21/164/26 36/163/26 34/169/26 24/168/26 
f 30/170/26 28/171/26 26/167/26 32/166/26 
# 72 polygons - 4 triangles

