# 3ds Max Wavefront OBJ Exporter v0.97b - (c)2007 guruware
# File Created: 02.03.2015 10:12:29

#
# object body003
#

v  250.0000 372.0000 -0.0000
v  250.0000 367.6579 -24.6255
v  -250.0000 367.6578 -24.6255
v  -250.0000 372.0000 -0.0000
v  250.0000 355.1552 -46.2807
v  -250.0000 355.1552 -46.2807
v  250.0000 336.0000 -62.3538
v  -250.0000 336.0000 -62.3538
v  250.0000 312.5027 -70.9062
v  -250.0000 312.5027 -70.9062
v  250.0000 287.4973 -70.9062
v  -250.0000 287.4973 -70.9062
v  250.0000 264.0000 -62.3538
v  -250.0000 264.0000 -62.3538
v  250.0000 244.8448 -46.2807
v  -250.0000 244.8448 -46.2807
v  250.0000 232.3421 -24.6255
v  -250.0000 232.3421 -24.6255
v  250.0000 228.0000 -0.0000
v  -250.0000 228.0000 -0.0000
v  250.0000 232.3421 24.6254
v  -250.0000 232.3421 24.6254
v  250.0000 244.8448 46.2807
v  -250.0000 244.8448 46.2807
v  250.0000 264.0000 62.3538
v  -250.0000 263.9999 62.3538
v  250.0000 287.4973 70.9062
v  -250.0000 287.4973 70.9062
v  250.0000 312.5026 70.9062
v  -250.0000 312.5026 70.9062
v  250.0000 336.0000 62.3539
v  -250.0000 335.9999 62.3539
v  250.0000 355.1552 46.2807
v  -250.0000 355.1552 46.2807
v  250.0000 367.6578 24.6255
v  -250.0000 367.6578 24.6255
v  72.0000 0.0000 -0.0000
v  67.6579 0.0000 -24.6255
v  67.6579 287.4113 -24.6255
v  72.0000 287.4113 -0.0000
v  55.1552 0.0000 -46.2807
v  55.1552 287.4113 -46.2807
v  36.0000 0.0000 -62.3538
v  36.0000 287.4113 -62.3538
v  12.5027 0.0000 -70.9062
v  12.5027 287.4113 -70.9062
v  -12.5027 0.0000 -70.9062
v  -12.5027 287.4113 -70.9062
v  -36.0000 0.0000 -62.3538
v  -36.0000 287.4113 -62.3538
v  -55.1552 0.0000 -46.2807
v  -55.1552 287.4113 -46.2807
v  -67.6579 0.0000 -24.6255
v  -67.6579 287.4113 -24.6255
v  -72.0000 0.0000 -0.0000
v  -72.0000 287.4113 -0.0000
v  -67.6579 0.0000 24.6254
v  -67.6579 287.4113 24.6254
v  -55.1552 0.0000 46.2807
v  -55.1552 287.4113 46.2807
v  -36.0000 0.0000 62.3538
v  -36.0000 287.4113 62.3538
v  -12.5027 0.0000 70.9062
v  -12.5027 287.4113 70.9061
v  12.5026 0.0000 70.9062
v  12.5026 287.4113 70.9062
v  36.0000 0.0000 62.3539
v  36.0000 287.4113 62.3539
v  55.1552 0.0000 46.2807
v  55.1552 287.4113 46.2807
v  67.6579 0.0000 24.6255
v  67.6579 287.4113 24.6255
# 72 vertices

vn 0.6700 0.7423 0.0000
vn 0.6700 0.6976 -0.2539
vn -0.6700 0.6976 -0.2539
vn -0.6700 0.7423 0.0000
vn 0.6700 0.5687 -0.4772
vn -0.6700 0.5687 -0.4772
vn 0.6700 0.3712 -0.6429
vn -0.6700 0.3712 -0.6429
vn 0.6700 0.1289 -0.7311
vn -0.6700 0.1289 -0.7311
vn 0.6700 -0.1289 -0.7311
vn -0.6700 -0.1289 -0.7311
vn 0.6700 -0.3712 -0.6429
vn -0.6700 -0.3712 -0.6429
vn 0.6700 -0.5687 -0.4772
vn -0.6700 -0.5687 -0.4772
vn 0.6700 -0.6976 -0.2539
vn -0.6700 -0.6976 -0.2539
vn 0.6700 -0.7423 -0.0000
vn -0.6700 -0.7423 -0.0000
vn 0.6700 -0.6976 0.2539
vn -0.6700 -0.6976 0.2539
vn 0.6700 -0.5687 0.4772
vn -0.6700 -0.5687 0.4772
vn 0.6700 -0.3712 0.6429
vn -0.6700 -0.3712 0.6429
vn 0.6700 -0.1289 0.7311
vn -0.6700 -0.1289 0.7311
vn 0.6700 0.1289 0.7311
vn -0.6700 0.1289 0.7311
vn 0.6700 0.3712 0.6429
vn -0.6700 0.3712 0.6429
vn 0.6700 0.5687 0.4772
vn -0.6700 0.5687 0.4772
vn 0.6700 0.6976 0.2539
vn -0.6700 0.6976 0.2539
vn 0.7423 -0.6700 0.0000
vn 0.6976 -0.6700 -0.2539
vn 0.9397 -0.0000 -0.3420
vn 1.0000 -0.0000 0.0000
vn 0.5687 -0.6700 -0.4772
vn 0.7660 -0.0000 -0.6428
vn 0.3712 -0.6700 -0.6429
vn 0.5000 -0.0000 -0.8660
vn 0.1289 -0.6700 -0.7311
vn 0.1736 -0.0000 -0.9848
vn -0.1289 -0.6700 -0.7311
vn -0.1736 -0.0000 -0.9848
vn -0.3712 -0.6700 -0.6429
vn -0.5000 0.0000 -0.8660
vn -0.5687 -0.6700 -0.4772
vn -0.7660 -0.0000 -0.6428
vn -0.6976 -0.6700 -0.2539
vn -0.9397 0.0000 -0.3420
vn -0.7423 -0.6700 0.0000
vn -1.0000 0.0000 0.0000
vn -0.6976 -0.6700 0.2539
vn -0.9397 0.0000 0.3420
vn -0.5687 -0.6700 0.4772
vn -0.7660 0.0000 0.6428
vn -0.3712 -0.6700 0.6429
vn -0.5000 -0.0000 0.8660
vn -0.1289 -0.6700 0.7311
vn -0.1736 0.0000 0.9848
vn 0.1289 -0.6700 0.7311
vn 0.1736 0.0000 0.9848
vn 0.3712 -0.6700 0.6429
vn 0.5000 0.0000 0.8660
vn 0.5687 -0.6700 0.4772
vn 0.7660 -0.0000 0.6428
vn 0.6976 -0.6700 0.2539
vn 0.9397 -0.0000 0.3420
# 72 vertex normals

vt 0.9847 0.5605 0.0000
vt 0.9847 0.6086 0.0000
vt 0.0244 0.6086 0.0000
vt 0.0244 0.5605 0.0000
vt 0.9847 0.6566 0.0000
vt 0.0244 0.6566 0.0000
vt 0.9847 0.7046 0.0000
vt 0.0244 0.7046 0.0000
vt 0.9847 0.7526 0.0000
vt 0.0244 0.7526 0.0000
vt 0.9847 0.8007 0.0000
vt 0.0244 0.8007 0.0000
vt 0.9847 0.8487 0.0000
vt 0.0244 0.8487 0.0000
vt 0.9847 0.8967 0.0000
vt 0.0244 0.8967 0.0000
vt 0.9847 0.9448 0.0000
vt 0.0244 0.9448 0.0000
vt 0.9842 0.9821 0.0000
vt 0.0242 0.9821 0.0000
vt 0.9815 0.2802 0.0000
vt 0.9815 0.3282 0.0000
vt 0.0215 0.3282 0.0000
vt 0.0215 0.2802 0.0000
vt 0.9815 0.3762 0.0000
vt 0.0215 0.3762 0.0000
vt 0.9815 0.4242 0.0000
vt 0.0215 0.4242 0.0000
vt 0.9815 0.4722 0.0000
vt 0.0215 0.4722 0.0000
vt 0.9815 0.5202 0.0000
vt 0.0215 0.5202 0.0000
vt 0.9815 0.5682 0.0000
vt 0.0215 0.5682 0.0000
vt 0.9815 0.6163 0.0000
vt 0.0215 0.6163 0.0000
vt 0.9815 0.6503 0.0000
vt 0.0215 0.6503 0.0000
vt 0.9815 0.6809 0.0000
vt 0.0215 0.6809 0.0000
vt 0.5619 0.3714 0.0000
vt 0.5273 0.1751 0.0000
vt 0.5619 0.1151 0.0000
vt 0.6149 0.4159 0.0000
vt 0.0872 0.2336 0.0000
vt 0.0992 0.1654 0.0000
vt 0.1338 0.1055 0.0000
vt 0.0992 0.3018 0.0000
vt 0.2519 0.0373 0.0000
vt 0.1869 0.4063 0.0000
vt 0.1338 0.3618 0.0000
vt 0.1869 0.0610 0.0000
vt 0.3862 0.0610 0.0000
vt 0.3212 0.4300 0.0000
vt 0.2519 0.4300 0.0000
vt 0.3212 0.0373 0.0000
vt 0.4739 0.1654 0.0000
vt 0.4393 0.3618 0.0000
vt 0.3862 0.4063 0.0000
vt 0.4393 0.1055 0.0000
vt 0.4859 0.2336 0.0000
vt 0.4739 0.3018 0.0000
vt 0.5273 0.3114 0.0000
vt 0.5153 0.2432 0.0000
vt 0.6800 0.0469 0.0000
vt 0.7492 0.4396 0.0000
vt 0.6800 0.4396 0.0000
vt 0.6149 0.0706 0.0000
vt 0.8143 0.0706 0.0000
vt 0.8673 0.3714 0.0000
vt 0.8143 0.4159 0.0000
vt 0.7492 0.0469 0.0000
vt 0.9020 0.1751 0.0000
vt 0.9140 0.2432 0.0000
vt 0.9020 0.3114 0.0000
vt 0.8673 0.1151 0.0000
vt 0.0141 0.9840 0.0000
vt 0.0141 0.9357 0.0000
vt 0.9811 0.9357 0.0000
vt 0.9811 0.9840 0.0000
vt 0.0141 0.8873 0.0000
vt 0.9811 0.8873 0.0000
vt 0.0141 0.8390 0.0000
vt 0.9811 0.8390 0.0000
vt 0.0141 0.7906 0.0000
vt 0.9811 0.7906 0.0000
vt 0.0141 0.7422 0.0000
vt 0.9811 0.7422 0.0000
vt 0.0141 0.6939 0.0000
vt 0.9811 0.6939 0.0000
vt 0.0141 0.6455 0.0000
vt 0.9811 0.6455 0.0000
vt 0.0141 0.5972 0.0000
vt 0.9811 0.5972 0.0000
vt 0.0136 0.5557 0.0000
vt 0.9834 0.5535 0.0000
vt 0.0168 0.9756 0.0000
vt 0.0166 0.9246 0.0000
vt 0.9937 0.9246 0.0000
vt 0.9951 0.9735 0.0000
vt 0.0166 0.8758 0.0000
vt 0.9937 0.8758 0.0000
vt 0.0166 0.8269 0.0000
vt 0.9937 0.8269 0.0000
vt 0.0166 0.7780 0.0000
vt 0.9937 0.7780 0.0000
vt 0.0166 0.7292 0.0000
vt 0.9937 0.7292 0.0000
vt 0.0166 0.6803 0.0000
vt 0.9937 0.6803 0.0000
vt 0.0166 0.6314 0.0000
vt 0.9937 0.6314 0.0000
vt 0.0166 0.5967 0.0000
vt 0.9937 0.5967 0.0000
vt 0.0166 0.5656 0.0000
vt 0.9937 0.5656 0.0000
vt 0.6016 0.8993 0.0000
vt 0.5670 0.7030 0.0000
vt 0.6016 0.6430 0.0000
vt 0.6546 0.9439 0.0000
vt 0.5670 0.8394 0.0000
vt 0.5549 0.7712 0.0000
vt 0.7197 0.5749 0.0000
vt 0.7889 0.9675 0.0000
vt 0.7197 0.9675 0.0000
vt 0.6546 0.5985 0.0000
vt 0.8540 0.5985 0.0000
vt 0.9070 0.8993 0.0000
vt 0.8540 0.9439 0.0000
vt 0.7889 0.5749 0.0000
vt 0.9416 0.7030 0.0000
vt 0.9537 0.7712 0.0000
vt 0.9416 0.8394 0.0000
vt 0.9070 0.6430 0.0000
# 134 texture coords

g body003
s 1
f 1/1/1 2/2/2 3/3/3 
f 3/3/3 4/4/4 1/1/1 
f 2/2/2 5/5/5 6/6/6 
f 6/6/6 3/3/3 2/2/2 
f 5/5/5 7/7/7 8/8/8 
f 8/8/8 6/6/6 5/5/5 
f 7/7/7 9/9/9 10/10/10 
f 10/10/10 8/8/8 7/7/7 
f 9/9/9 11/11/11 12/12/12 
f 12/12/12 10/10/10 9/9/9 
f 11/11/11 13/13/13 14/14/14 
f 14/14/14 12/12/12 11/11/11 
f 13/13/13 15/15/15 16/16/16 
f 16/16/16 14/14/14 13/13/13 
f 15/15/15 17/17/17 18/18/18 
f 18/18/18 16/16/16 15/15/15 
f 17/17/17 19/19/19 20/20/20 
f 20/20/20 18/18/18 17/17/17 
f 19/21/19 21/22/21 22/23/22 
f 22/23/22 20/24/20 19/21/19 
f 21/22/21 23/25/23 24/26/24 
f 24/26/24 22/23/22 21/22/21 
f 23/25/23 25/27/25 26/28/26 
f 26/28/26 24/26/24 23/25/23 
f 25/27/25 27/29/27 28/30/28 
f 28/30/28 26/28/26 25/27/25 
f 27/29/27 29/31/29 30/32/30 
f 30/32/30 28/30/28 27/29/27 
f 29/31/29 31/33/31 32/34/32 
f 32/34/32 30/32/30 29/31/29 
f 31/33/31 33/35/33 34/36/34 
f 34/36/34 32/34/32 31/33/31 
f 33/35/33 35/37/35 36/38/36 
f 36/38/36 34/36/34 33/35/33 
f 35/37/35 1/39/1 4/40/4 
f 4/40/4 36/38/36 35/37/35 
f 23/41/23 17/42/17 15/43/15 
f 15/43/15 25/44/25 23/41/23 
f 20/45/20 22/46/22 24/47/24 
f 24/47/24 18/48/18 20/45/20 
f 28/49/28 14/50/14 16/51/16 
f 16/51/16 26/52/26 28/49/28 
f 18/48/18 24/47/24 26/52/26 
f 26/52/26 16/51/16 18/48/18 
f 32/53/32 10/54/10 12/55/12 
f 12/55/12 30/56/30 32/53/32 
f 14/50/14 28/49/28 30/56/30 
f 30/56/30 12/55/12 14/50/14 
f 36/57/36 6/58/6 8/59/8 
f 8/59/8 34/60/34 36/57/36 
f 10/54/10 32/53/32 34/60/34 
f 34/60/34 8/59/8 10/54/10 
f 4/61/4 3/62/3 6/58/6 
f 6/58/6 36/57/36 4/61/4 
f 21/63/21 19/64/19 17/42/17 
f 17/42/17 23/41/23 21/63/21 
f 11/65/11 29/66/29 27/67/27 
f 27/67/27 13/68/13 11/65/11 
f 25/44/25 15/43/15 13/68/13 
f 13/68/13 27/67/27 25/44/25 
f 7/69/7 33/70/33 31/71/31 
f 31/71/31 9/72/9 7/69/7 
f 29/66/29 11/65/11 9/72/9 
f 9/72/9 31/71/31 29/66/29 
f 2/73/2 1/74/1 35/75/35 
f 35/75/35 5/76/5 2/73/2 
f 33/70/33 7/69/7 5/76/5 
f 5/76/5 35/75/35 33/70/33 
f 37/77/37 38/78/38 39/79/39 
f 39/79/39 40/80/40 37/77/37 
f 38/78/38 41/81/41 42/82/42 
f 42/82/42 39/79/39 38/78/38 
f 41/81/41 43/83/43 44/84/44 
f 44/84/44 42/82/42 41/81/41 
f 43/83/43 45/85/45 46/86/46 
f 46/86/46 44/84/44 43/83/43 
f 45/85/45 47/87/47 48/88/48 
f 48/88/48 46/86/46 45/85/45 
f 47/87/47 49/89/49 50/90/50 
f 50/90/50 48/88/48 47/87/47 
f 49/89/49 51/91/51 52/92/52 
f 52/92/52 50/90/50 49/89/49 
f 51/91/51 53/93/53 54/94/54 
f 54/94/54 52/92/52 51/91/51 
f 53/93/53 55/95/55 56/96/56 
f 56/96/56 54/94/54 53/93/53 
f 55/97/55 57/98/57 58/99/58 
f 58/99/58 56/100/56 55/97/55 
f 57/98/57 59/101/59 60/102/60 
f 60/102/60 58/99/58 57/98/57 
f 59/101/59 61/103/61 62/104/62 
f 62/104/62 60/102/60 59/101/59 
f 61/103/61 63/105/63 64/106/64 
f 64/106/64 62/104/62 61/103/61 
f 63/105/63 65/107/65 66/108/66 
f 66/108/66 64/106/64 63/105/63 
f 65/107/65 67/109/67 68/110/68 
f 68/110/68 66/108/66 65/107/65 
f 67/109/67 69/111/69 70/112/70 
f 70/112/70 68/110/68 67/109/67 
f 69/111/69 71/113/71 72/114/72 
f 72/114/72 70/112/70 69/111/69 
f 71/113/71 37/115/37 40/116/40 
f 40/116/40 72/114/72 71/113/71 
f 59/117/59 53/118/53 51/119/51 
f 51/119/51 61/120/61 59/117/59 
f 57/121/57 55/122/55 53/118/53 
f 53/118/53 59/117/59 57/121/57 
f 47/123/47 65/124/65 63/125/63 
f 63/125/63 49/126/49 47/123/47 
f 61/120/61 51/119/51 49/126/49 
f 49/126/49 63/125/63 61/120/61 
f 43/127/43 69/128/69 67/129/67 
f 67/129/67 45/130/45 43/127/43 
f 65/124/65 47/123/47 45/130/45 
f 45/130/45 67/129/67 65/124/65 
f 38/131/38 37/132/37 71/133/71 
f 71/133/71 41/134/41 38/131/38 
f 69/128/69 43/127/43 41/134/41 
f 41/134/41 71/133/71 69/128/69 
# 120 faces

