# 3ds Max Wavefront OBJ Exporter v0.97b - (c)2007 guruware
# File Created: 24.02.2015 14:02:35

#
# object body001
#

v  72.0000 -2.8352 -0.0000
v  67.6579 -2.8352 -24.6255
v  67.6579 497.1648 -24.6255
v  72.0000 497.1648 -0.0000
v  55.1552 -2.8352 -46.2807
v  55.1552 497.1648 -46.2807
v  36.0000 -2.8352 -62.3538
v  36.0000 497.1648 -62.3538
v  12.5027 -2.8352 -70.9062
v  12.5027 497.1648 -70.9062
v  -12.5027 -2.8352 -70.9062
v  -12.5027 497.1648 -70.9062
v  -36.0000 -2.8352 -62.3538
v  -36.0000 497.1648 -62.3538
v  -55.1552 -2.8352 -46.2807
v  -55.1552 497.1648 -46.2807
v  -67.6579 -2.8352 -24.6255
v  -67.6579 497.1648 -24.6255
v  -72.0000 -2.8352 -0.0000
v  -72.0000 497.1648 -0.0000
v  -67.6579 -2.8352 24.6254
v  -67.6579 497.1648 24.6254
v  -55.1552 -2.8352 46.2807
v  -55.1552 497.1648 46.2807
v  -36.0000 -2.8352 62.3538
v  -36.0000 497.1648 62.3538
v  -12.5027 -2.8352 70.9062
v  -12.5027 497.1648 70.9062
v  12.5026 -2.8352 70.9062
v  12.5026 497.1648 70.9062
v  36.0000 -2.8352 62.3539
v  36.0000 497.1648 62.3539
v  55.1552 -2.8352 46.2807
v  55.1552 497.1648 46.2807
v  67.6579 -2.8352 24.6255
v  67.6579 497.1648 24.6255
# 36 vertices

vn 0.7423 -0.6700 0.0000
vn 0.6976 -0.6700 -0.2539
vn 0.6976 0.6700 -0.2539
vn 0.7423 0.6700 0.0000
vn 0.5687 -0.6700 -0.4772
vn 0.5687 0.6700 -0.4772
vn 0.3712 -0.6700 -0.6429
vn 0.3712 0.6700 -0.6429
vn 0.1289 -0.6700 -0.7311
vn 0.1289 0.6700 -0.7311
vn -0.1289 -0.6700 -0.7311
vn -0.1289 0.6700 -0.7311
vn -0.3712 -0.6700 -0.6429
vn -0.3712 0.6700 -0.6429
vn -0.5687 -0.6700 -0.4772
vn -0.5687 0.6700 -0.4772
vn -0.6976 -0.6700 -0.2539
vn -0.6976 0.6700 -0.2539
vn -0.7423 -0.6700 -0.0000
vn -0.7423 0.6700 -0.0000
vn -0.6976 -0.6700 0.2539
vn -0.6976 0.6700 0.2539
vn -0.5687 -0.6700 0.4772
vn -0.5687 0.6700 0.4772
vn -0.3712 -0.6700 0.6429
vn -0.3712 0.6700 0.6429
vn -0.1289 -0.6700 0.7311
vn -0.1289 0.6700 0.7311
vn 0.1289 -0.6700 0.7311
vn 0.1289 0.6700 0.7311
vn 0.3712 -0.6700 0.6429
vn 0.3712 0.6700 0.6429
vn 0.5687 -0.6700 0.4772
vn 0.5687 0.6700 0.4772
vn 0.6976 -0.6700 0.2539
vn 0.6976 0.6700 0.2539
# 36 vertex normals

vt 0.9876 0.5548 0.0000
vt 0.9876 0.6036 0.0000
vt 0.0124 0.6036 0.0000
vt 0.0124 0.5548 0.0000
vt 0.9876 0.6524 0.0000
vt 0.0124 0.6524 0.0000
vt 0.9876 0.7012 0.0000
vt 0.0124 0.7012 0.0000
vt 0.9876 0.7499 0.0000
vt 0.0124 0.7499 0.0000
vt 0.9876 0.7987 0.0000
vt 0.0124 0.7987 0.0000
vt 0.9876 0.8475 0.0000
vt 0.0124 0.8475 0.0000
vt 0.9876 0.8962 0.0000
vt 0.0124 0.8962 0.0000
vt 0.9876 0.9450 0.0000
vt 0.0124 0.9450 0.0000
vt 0.9876 0.9938 0.0000
vt 0.0124 0.9938 0.0000
vt 0.9883 0.2753 0.0000
vt 0.9883 0.3243 0.0000
vt 0.0091 0.3243 0.0000
vt 0.0091 0.2753 0.0000
vt 0.9883 0.3733 0.0000
vt 0.0091 0.3733 0.0000
vt 0.9883 0.4223 0.0000
vt 0.0091 0.4223 0.0000
vt 0.9883 0.4712 0.0000
vt 0.0091 0.4712 0.0000
vt 0.9883 0.5202 0.0000
vt 0.0091 0.5202 0.0000
vt 0.9883 0.5692 0.0000
vt 0.0091 0.5692 0.0000
vt 0.9883 0.6181 0.0000
vt 0.0091 0.6181 0.0000
vt 0.9883 0.6529 0.0000
vt 0.0091 0.6529 0.0000
vt 0.9883 0.6841 0.0000
vt 0.0091 0.6841 0.0000
vt 0.5619 0.3714 0.0000
vt 0.5273 0.1751 0.0000
vt 0.5619 0.1151 0.0000
vt 0.6149 0.4159 0.0000
vt 0.0872 0.2336 0.0000
vt 0.0992 0.1654 0.0000
vt 0.1338 0.1055 0.0000
vt 0.0992 0.3018 0.0000
vt 0.2519 0.0373 0.0000
vt 0.1869 0.4063 0.0000
vt 0.1338 0.3618 0.0000
vt 0.1869 0.0610 0.0000
vt 0.3862 0.0610 0.0000
vt 0.3212 0.4300 0.0000
vt 0.2519 0.4300 0.0000
vt 0.3212 0.0373 0.0000
vt 0.4739 0.1654 0.0000
vt 0.4393 0.3618 0.0000
vt 0.3862 0.4063 0.0000
vt 0.4393 0.1055 0.0000
vt 0.4859 0.2336 0.0000
vt 0.4739 0.3018 0.0000
vt 0.5273 0.3114 0.0000
vt 0.5153 0.2432 0.0000
vt 0.6800 0.0469 0.0000
vt 0.7492 0.4396 0.0000
vt 0.6800 0.4396 0.0000
vt 0.6149 0.0706 0.0000
vt 0.8143 0.0706 0.0000
vt 0.8673 0.3714 0.0000
vt 0.8143 0.4159 0.0000
vt 0.7492 0.0469 0.0000
vt 0.9020 0.1751 0.0000
vt 0.9140 0.2432 0.0000
vt 0.9020 0.3114 0.0000
vt 0.8673 0.1151 0.0000
# 76 texture coords

g body001
s 1
f 1/1/1 2/2/2 3/3/3 
f 3/3/3 4/4/4 1/1/1 
f 2/2/2 5/5/5 6/6/6 
f 6/6/6 3/3/3 2/2/2 
f 5/5/5 7/7/7 8/8/8 
f 8/8/8 6/6/6 5/5/5 
f 7/7/7 9/9/9 10/10/10 
f 10/10/10 8/8/8 7/7/7 
f 9/9/9 11/11/11 12/12/12 
f 12/12/12 10/10/10 9/9/9 
f 11/11/11 13/13/13 14/14/14 
f 14/14/14 12/12/12 11/11/11 
f 13/13/13 15/15/15 16/16/16 
f 16/16/16 14/14/14 13/13/13 
f 15/15/15 17/17/17 18/18/18 
f 18/18/18 16/16/16 15/15/15 
f 17/17/17 19/19/19 20/20/20 
f 20/20/20 18/18/18 17/17/17 
f 19/21/19 21/22/21 22/23/22 
f 22/23/22 20/24/20 19/21/19 
f 21/22/21 23/25/23 24/26/24 
f 24/26/24 22/23/22 21/22/21 
f 23/25/23 25/27/25 26/28/26 
f 26/28/26 24/26/24 23/25/23 
f 25/27/25 27/29/27 28/30/28 
f 28/30/28 26/28/26 25/27/25 
f 27/29/27 29/31/29 30/32/30 
f 30/32/30 28/30/28 27/29/27 
f 29/31/29 31/33/31 32/34/32 
f 32/34/32 30/32/30 29/31/29 
f 31/33/31 33/35/33 34/36/34 
f 34/36/34 32/34/32 31/33/31 
f 33/35/33 35/37/35 36/38/36 
f 36/38/36 34/36/34 33/35/33 
f 35/37/35 1/39/1 4/40/4 
f 4/40/4 36/38/36 35/37/35 
f 23/41/23 17/42/17 15/43/15 
f 15/43/15 25/44/25 23/41/23 
f 20/45/20 22/46/22 24/47/24 
f 24/47/24 18/48/18 20/45/20 
f 28/49/28 14/50/14 16/51/16 
f 16/51/16 26/52/26 28/49/28 
f 18/48/18 24/47/24 26/52/26 
f 26/52/26 16/51/16 18/48/18 
f 32/53/32 10/54/10 12/55/12 
f 12/55/12 30/56/30 32/53/32 
f 14/50/14 28/49/28 30/56/30 
f 30/56/30 12/55/12 14/50/14 
f 36/57/36 6/58/6 8/59/8 
f 8/59/8 34/60/34 36/57/36 
f 10/54/10 32/53/32 34/60/34 
f 34/60/34 8/59/8 10/54/10 
f 4/61/4 3/62/3 6/58/6 
f 6/58/6 36/57/36 4/61/4 
f 21/63/21 19/64/19 17/42/17 
f 17/42/17 23/41/23 21/63/21 
f 11/65/11 29/66/29 27/67/27 
f 27/67/27 13/68/13 11/65/11 
f 25/44/25 15/43/15 13/68/13 
f 13/68/13 27/67/27 25/44/25 
f 7/69/7 33/70/33 31/71/31 
f 31/71/31 9/72/9 7/69/7 
f 29/66/29 11/65/11 9/72/9 
f 9/72/9 31/71/31 29/66/29 
f 2/73/2 1/74/1 35/75/35 
f 35/75/35 5/76/5 2/73/2 
f 33/70/33 7/69/7 5/76/5 
f 5/76/5 35/75/35 33/70/33 
# 68 faces

